<svg width="35px" height="35px" viewBox="0 0 35 35" fill="none" xmlns="http://www.w3.org/2000/svg" transform="rotate(0) scale(1, 1)">
<path d="M31.553 18.8787H22.803C22.4849 18.8787 22.2727 19.0908 22.2727 19.409V22.8559C22.2727 23.1741 22.4849 23.3862 22.803 23.3862H31.553C31.8712 23.3862 32.0833 23.1741 32.0833 22.8559V19.409C32.0833 19.1438 31.8712 18.8787 31.553 18.8787ZM31.0227 22.3256H23.3333V19.9393H31.0227V22.3256Z" fill="#ffffff"/>
<path d="M30.9697 25.6667H28.7955C28.4773 25.6667 28.2652 25.8789 28.2652 26.1971C28.2652 26.5152 28.4773 26.7274 28.7955 26.7274H30.9697C31.2879 26.7274 31.5 26.5152 31.5 26.1971C31.5 25.9319 31.2879 25.6667 30.9697 25.6667Z" fill="#ffffff"/>
<path d="M30.9697 29.2197H28.7955C28.4773 29.2197 28.2652 29.4318 28.2652 29.75C28.2652 30.0682 28.4773 30.2803 28.7955 30.2803H30.9697C31.2879 30.2803 31.5 30.0682 31.5 29.75C31.5 29.4318 31.2879 29.2197 30.9697 29.2197Z" fill="#ffffff"/>
<path d="M25.5606 25.6666H25.0303V25.1363C25.0303 24.8181 24.8182 24.606 24.5 24.606C24.1818 24.606 23.9697 24.8181 23.9697 25.1363V25.6666H23.4394C23.1212 25.6666 22.9091 25.8787 22.9091 26.1969C22.9091 26.515 23.1212 26.7272 23.4394 26.7272H23.9697V27.2575C23.9697 27.5757 24.1818 27.7878 24.5 27.7878C24.8182 27.7878 25.0303 27.5757 25.0303 27.2575V26.7272H25.5606C25.8788 26.7272 26.0909 26.515 26.0909 26.1969C26.0909 25.9317 25.8258 25.6666 25.5606 25.6666Z" fill="#ffffff"/>
<path d="M25.6136 29.6969C25.4015 29.4848 25.0833 29.4848 24.8712 29.6969L24.5 30.0681L24.0758 29.6969C23.8636 29.4848 23.5455 29.4848 23.3333 29.6969C23.1212 29.9091 23.1212 30.2272 23.3333 30.4394L23.7045 30.8106L23.3333 31.2348C23.1212 31.4469 23.1212 31.7651 23.3333 31.9772C23.5455 32.1894 23.8636 32.1894 24.0758 31.9772L24.447 31.606L24.8182 31.9772C25.0303 32.1894 25.3485 32.1894 25.5606 31.9772C25.7727 31.7651 25.7727 31.4469 25.5606 31.2348L25.1894 30.8636L25.5606 30.4924C25.8258 30.2272 25.8258 29.9091 25.6136 29.6969Z" fill="#ffffff"/>
<path d="M34.4697 2.70452C34.4697 2.38633 34.2576 2.17421 33.9394 2.17421H31.6591V1.06058C31.6591 0.742395 31.447 0.530273 31.1288 0.530273H3.87121C3.55303 0.530273 3.34091 0.742395 3.34091 1.06058V2.17421H1.06061C0.742425 2.17421 0.530304 2.38633 0.530304 2.70452V26.5681C0.530304 26.8863 0.742425 27.0985 1.06061 27.0985H15.2727C15.5379 28.106 16.3864 28.8485 17.5 28.8485C18.5606 28.8485 19.4621 28.106 19.6742 27.0985H19.8864V33.0909C19.8864 33.8333 20.4697 34.4166 21.2121 34.4166H33.0379C33.7803 34.4166 34.3636 33.8333 34.3636 33.0909C34.4697 30.5454 34.4697 5.46209 34.4697 2.70452ZM33.4091 3.23482V16.6515C33.303 16.6515 33.197 16.5985 33.0909 16.5985H31.6591V3.23482H33.4091ZM30.6515 16.6515H21.2652C20.5227 16.6515 19.9394 17.2348 19.9394 17.9772V23.0682H18.0303V1.59088H30.6515V16.6515ZM4.40152 1.59088H16.9697V23.0682H4.40152V1.59088ZM19.25 26.0378C18.9318 26.0378 18.7197 26.25 18.7197 26.5681C18.7197 27.2575 18.1894 27.7878 17.5 27.7878C16.8106 27.7878 16.2803 27.2575 16.2803 26.5681C16.2803 26.25 16.0682 26.0378 15.75 26.0378H1.59091V3.23482H3.28788V23.5985C3.28788 23.9166 3.5 24.1288 3.81818 24.1288H19.8864V26.0378H19.25ZM33.4091 33.1439C33.4091 33.303 33.303 33.4091 33.1439 33.4091H21.2652C21.1061 33.4091 21 33.303 21 33.1439V17.9772C21 17.8182 21.1061 17.7121 21.2652 17.7121H33.0909C33.25 17.7121 33.3561 17.8182 33.3561 17.9772V33.1439H33.4091Z" fill="#ffffff"/>
<path d="M6.73485 5.0379H14.3712C14.6894 5.0379 14.9015 4.82578 14.9015 4.5076C14.9015 4.18942 14.6894 3.97729 14.3712 3.97729H6.73485C6.41667 3.97729 6.20454 4.18942 6.20454 4.5076C6.20454 4.82578 6.41667 5.0379 6.73485 5.0379Z" fill="#ffffff"/>
<path d="M6.73485 8.90899H14.3712C14.6894 8.90899 14.9015 8.69687 14.9015 8.37869C14.9015 8.06051 14.6894 7.84839 14.3712 7.84839H6.73485C6.41667 7.84839 6.20454 8.06051 6.20454 8.37869C6.20454 8.64384 6.41667 8.90899 6.73485 8.90899Z" fill="#ffffff"/>
<path d="M6.73485 12.7274H14.3712C14.6894 12.7274 14.9015 12.5152 14.9015 12.1971C14.9015 11.8789 14.6894 11.6667 14.3712 11.6667H6.73485C6.41667 11.6667 6.20454 11.8789 6.20454 12.1971C6.20454 12.5152 6.41667 12.7274 6.73485 12.7274Z" fill="#ffffff"/>
<path d="M6.73485 16.5455H14.3712C14.6894 16.5455 14.9015 16.3333 14.9015 16.0152C14.9015 15.697 14.6894 15.4849 14.3712 15.4849H6.73485C6.41667 15.4849 6.20454 15.697 6.20454 16.0152C6.20454 16.3333 6.41667 16.5455 6.73485 16.5455Z" fill="#ffffff"/>
<path d="M6.73485 20.4166H14.3712C14.6894 20.4166 14.9015 20.2044 14.9015 19.8863C14.9015 19.5681 14.6894 19.356 14.3712 19.356H6.73485C6.41667 19.356 6.20454 19.5681 6.20454 19.8863C6.20454 20.2044 6.41667 20.4166 6.73485 20.4166Z" fill="#ffffff"/>
<path d="M20.7348 5.0379H28.3712C28.6894 5.0379 28.9015 4.82578 28.9015 4.5076C28.9015 4.18942 28.6894 3.97729 28.3712 3.97729H20.7348C20.4167 3.97729 20.2045 4.18942 20.2045 4.5076C20.2045 4.82578 20.4697 5.0379 20.7348 5.0379Z" fill="#ffffff"/>
<path d="M20.7348 8.90899H28.3712C28.6894 8.90899 28.9015 8.69687 28.9015 8.37869C28.9015 8.06051 28.6894 7.84839 28.3712 7.84839H20.7348C20.4167 7.84839 20.2045 8.06051 20.2045 8.37869C20.2045 8.64384 20.4697 8.90899 20.7348 8.90899Z" fill="#ffffff"/>
<path d="M20.7348 12.7274H28.3712C28.6894 12.7274 28.9015 12.5152 28.9015 12.1971C28.9015 11.8789 28.6894 11.6667 28.3712 11.6667H20.7348C20.4167 11.6667 20.2045 11.8789 20.2045 12.1971C20.2045 12.5152 20.4697 12.7274 20.7348 12.7274Z" fill="#ffffff"/>
</svg>