<svg width="35" height="35" viewBox="0 0 35 35" fill="none" xmlns="http://www.w3.org/2000/svg">
<path d="M31.9438 15.8083H30.3642C30.1577 15.8083 29.9903 15.6408 29.9903 15.4344C29.9903 15.2279 30.1577 15.0604 30.3642 15.0604H31.9438C32.1503 15.0604 32.3177 15.2279 32.3177 15.4344C32.3177 15.6408 32.1503 15.8083 31.9438 15.8083Z" fill="#B68C5A"/>
<path d="M28.6441 9.38175C28.2773 9.38175 28.1376 8.86841 28.4566 8.68399L29.8246 7.8935C30.0035 7.79015 30.2322 7.8514 30.3355 8.03013C30.4389 8.20895 30.3776 8.43765 30.1989 8.541L28.8309 9.33149C28.7719 9.36552 28.7076 9.38175 28.6441 9.38175Z" fill="#B68C5A"/>
<path d="M23.9432 4.67698C23.6604 4.67698 23.4785 4.36086 23.6197 4.11616L24.4095 2.7469C24.5126 2.56801 24.7413 2.50654 24.9202 2.60982C25.0991 2.71302 25.1605 2.94172 25.0573 3.12053L24.2675 4.48979C24.1982 4.60983 24.0725 4.67698 23.9432 4.67698Z" fill="#B68C5A"/>
<path d="M11.1026 4.67703C10.9733 4.67703 10.8476 4.60995 10.7784 4.48984L9.98854 3.12058C9.88533 2.94169 9.94673 2.71307 10.1256 2.60987C10.3044 2.50651 10.5331 2.56799 10.6363 2.74695L11.4262 4.11621C11.5674 4.36099 11.3855 4.67703 11.1026 4.67703Z" fill="#B68C5A"/>
<path d="M6.40164 9.38171C6.33815 9.38171 6.27383 9.36556 6.2149 9.33145L4.84691 8.54096C4.66809 8.43761 4.60692 8.20891 4.71027 8.0301C4.81355 7.85128 5.04225 7.78996 5.22114 7.89346L6.58913 8.68395C6.90712 8.86778 6.76914 9.38171 6.40164 9.38171Z" fill="#B68C5A"/>
<path d="M4.68163 15.8083H3.10207C2.89558 15.8083 2.72813 15.6408 2.72813 15.4344C2.72813 15.2279 2.89558 15.0604 3.10207 15.0604H4.68163C4.88811 15.0604 5.05556 15.2279 5.05556 15.4344C5.05556 15.6408 4.88811 15.8083 4.68163 15.8083Z" fill="#B68C5A"/>
<path d="M32.8312 34.14H32.4149C31.838 32.5716 30.1881 31.5859 28.535 31.7959C27.6104 30.0275 25.7588 28.9 23.7393 28.9C23.2487 28.9 22.7659 28.9671 22.2972 29.0968V25.8998C22.2972 24.8536 22.7772 23.8547 23.5813 23.2277C26.0009 21.3409 27.3887 18.5004 27.3887 15.4344C27.3887 12.5837 26.1574 9.87224 24.0106 7.99525C23.8551 7.85936 23.6189 7.87514 23.483 8.03062C23.3471 8.1861 23.3629 8.42235 23.5184 8.55824C25.5027 10.2932 26.6408 12.7994 26.6408 15.4344C26.6408 18.2683 25.358 20.8939 23.1213 22.638C22.2901 23.2862 21.7433 24.257 21.5929 25.3111L13.3886 25.3094C13.2586 24.2411 12.7193 23.2694 11.8631 22.59C9.66202 20.8434 8.4015 18.2312 8.40486 15.4233C8.40785 12.9338 9.3907 10.6102 11.1725 8.8805C11.3206 8.73668 11.3241 8.49991 11.1803 8.35176C11.0364 8.2036 10.7997 8.20009 10.6515 8.34398C8.72368 10.2156 7.66014 12.7294 7.65692 15.4225C7.65333 18.4603 9.01699 21.2864 11.3981 23.1759C12.2077 23.8183 12.672 24.78 12.672 25.8144V29.0869C12.2131 28.9631 11.7405 28.9001 11.2606 28.9001C9.24105 28.9001 7.38941 30.0276 6.4649 31.796C4.81138 31.5858 3.16182 32.572 2.58499 34.1401H0.373932C0.167447 34.1401 0 34.3076 0 34.514C0 34.7205 0.167447 34.888 0.373932 34.888H32.8312C33.0377 34.888 33.2051 34.7205 33.2051 34.514C33.2051 34.3076 33.0377 34.14 32.8312 34.14ZM13.42 28.8802L17.7351 28.8818H17.7352C17.9417 28.8818 18.1091 28.7145 18.1091 28.508C18.1092 28.3015 17.9418 28.134 17.7354 28.1339L13.4199 28.1323V26.0573L21.5493 26.0589V29.9465C21.5493 30.5658 21.0461 31.0697 20.4275 31.0697H14.5417C13.9231 31.0697 13.4199 30.5658 13.4199 29.9465V28.8802H13.42ZM3.39754 34.14C3.97041 32.9592 5.32045 32.3085 6.60184 32.5765C6.77287 32.6123 6.94615 32.5248 7.0187 32.3656C7.77112 30.7147 9.43624 29.6479 11.2607 29.6479C11.7427 29.6479 12.2162 29.7217 12.6722 29.8658C12.636 30.7512 13.2576 31.5699 14.1219 31.7692C14.198 32.7269 14.6767 33.5729 15.3886 34.14H3.39754V34.14ZM17.4999 34.1308C16.1509 34.1308 15.0356 33.1187 14.8779 31.8175H20.122C19.9642 33.1187 18.8489 34.1308 17.4999 34.1308ZM19.6114 34.14C20.325 33.5716 20.8044 32.7228 20.8785 31.7621C21.7387 31.5481 22.3088 30.7484 22.2972 29.8759C22.7628 29.725 23.2467 29.648 23.7393 29.648C25.5638 29.648 27.2289 30.7147 27.9813 32.3657C28.0539 32.5249 28.2271 32.6126 28.3982 32.5766C29.6796 32.3085 31.0302 32.9593 31.603 34.1401H19.6114V34.14Z" fill="#B68C5A"/>
<path d="M21.9555 10.4575C22.068 9.54638 22.0737 8.64035 21.9718 7.74194C21.6267 4.69933 20.2118 1.94809 17.7492 0.0763389C17.6153 -0.0254453 17.4298 -0.0252957 17.2959 0.0768624C14.8419 1.95101 13.4117 4.7024 13.0568 7.74074C12.9525 8.63376 12.9551 9.53382 13.0638 10.4384C11.0581 12.4019 10.1895 15.1684 10.7389 17.8791C10.7951 18.1564 11.1422 18.2785 11.3582 18.0803L14.5656 15.1373C14.7577 15.5085 14.9679 15.8797 15.1946 16.2509C14.7352 16.9502 13.9995 18.3872 14.3033 20.0777C14.341 20.2874 14.5694 20.4373 14.7859 20.3675L16.1322 19.9341C16.4565 20.6401 17.0593 21.9403 17.1875 22.1326C17.3333 22.3514 17.667 22.351 17.8125 22.1326C17.9408 21.9403 18.5435 20.6401 18.8678 19.9341L20.2141 20.3675C20.4306 20.4373 20.659 20.2873 20.6967 20.0777C20.9981 18.4007 20.2741 16.9712 19.8197 16.2726C20.0469 15.899 20.2577 15.5254 20.4503 15.1519L23.6418 18.0803C23.8577 18.2785 24.2048 18.1564 24.2611 17.8791C24.8083 15.1791 23.9468 12.4197 21.9555 10.4575ZM17.5233 0.849031C18.595 1.71102 19.4922 2.78966 20.1268 4.01085C19.3831 4.57758 18.4633 4.88921 17.5224 4.88921C16.5819 4.88921 15.6622 4.5778 14.9187 4.01137C15.5572 2.79198 16.4533 1.71341 17.5233 0.849031ZM11.3674 17.0568C11.1448 14.9939 11.81 12.9441 13.2126 11.3652C13.4161 12.3853 13.7535 13.4099 14.2238 14.4358L11.3674 17.0568ZM20.0125 19.5168L18.7808 19.1203C18.6003 19.0622 18.4049 19.1483 18.3261 19.3208C18.0382 19.9507 17.7261 20.6223 17.5 21.0962C17.2739 20.6222 16.9618 19.9507 16.6739 19.3208C16.5951 19.1483 16.3996 19.0621 16.2192 19.1203L14.9875 19.5168C14.9075 18.2584 15.4664 17.196 15.8249 16.6533H19.1753C19.529 17.189 20.0924 18.255 20.0125 19.5168ZM19.1686 15.9055H15.8591C14.1845 13.182 13.4916 10.4651 13.7997 7.82749C13.868 7.24244 14.0052 6.06785 14.5919 4.69918C15.442 5.30525 16.4711 5.63708 17.5224 5.63708C18.5731 5.63708 19.6016 5.3057 20.4514 4.7003C21.0286 6.06283 21.1621 7.2396 21.2287 7.82622C21.5275 10.4597 20.8344 13.1769 19.1686 15.9055ZM23.6325 17.0568L20.7916 14.45C21.2607 13.4252 21.5984 12.4022 21.804 11.3844C23.1947 12.9606 23.8538 15.0033 23.6325 17.0568Z" fill="#B68C5A"/>
<path d="M17.5229 9.73262C16.7219 9.73262 16.0703 9.07966 16.0703 8.27698C16.0703 7.47437 16.7219 6.82141 17.5229 6.82141C18.3238 6.82141 18.9755 7.47437 18.9755 8.27698C18.9755 9.07958 18.3238 9.73262 17.5229 9.73262ZM17.5229 7.5692C17.1343 7.5692 16.8182 7.88667 16.8182 8.2769C16.8182 8.66714 17.1343 8.98468 17.5229 8.98468C17.9115 8.98468 18.2276 8.66714 18.2276 8.2769C18.2276 7.88667 17.9115 7.5692 17.5229 7.5692Z" fill="#B68C5A"/>
<path d="M17.5229 14.0594C16.7219 14.0594 16.0703 13.4064 16.0703 12.6038C16.0703 11.8012 16.7219 11.1482 17.5229 11.1482C18.3238 11.1482 18.9755 11.8012 18.9755 12.6038C18.9755 13.4064 18.3238 14.0594 17.5229 14.0594ZM17.5229 11.8961C17.1343 11.8961 16.8182 12.2136 16.8182 12.6038C16.8182 12.9941 17.1343 13.3115 17.5229 13.3115C17.9115 13.3115 18.2276 12.9941 18.2276 12.6038C18.2276 12.2136 17.9115 11.8961 17.5229 11.8961Z" fill="#B68C5A"/>
<path d="M4.86112 27.7966C4.72433 27.7966 4.59854 27.722 4.53295 27.6019L3.52783 25.7624L1.6901 24.7564C1.43545 24.617 1.43545 24.2398 1.6901 24.1004L3.52783 23.0943L4.53295 21.2548C4.67221 20.9999 5.04995 20.9999 5.1892 21.2548L6.19433 23.0943L8.03206 24.1004C8.2867 24.2398 8.2867 24.617 8.03206 24.7564L6.19441 25.7624L5.18928 27.6019C5.12369 27.7219 4.9979 27.7966 4.86112 27.7966ZM2.64841 24.4284L3.98305 25.159C4.0458 25.1934 4.09732 25.245 4.13165 25.3077L4.86112 26.6428L5.59058 25.3077C5.62483 25.245 5.67644 25.1934 5.73918 25.159L7.07382 24.4284L5.73918 23.6977C5.67644 23.6634 5.62491 23.6118 5.59058 23.549L4.86112 22.214L4.13165 23.5491C4.0974 23.6119 4.0458 23.6635 3.98305 23.6978L2.64841 24.4284Z" fill="#B68C5A"/>
<path d="M30.1389 27.7966C30.0021 27.7966 29.8763 27.722 29.8107 27.6019L28.8056 25.7624L26.9679 24.7564C26.7132 24.617 26.7132 24.2398 26.9679 24.1004L28.8056 23.0943L29.8107 21.2548C29.95 20.9999 30.3277 20.9999 30.467 21.2548L31.4721 23.0943L33.3098 24.1004C33.5645 24.2398 33.5645 24.617 33.3098 24.7564L31.4721 25.7624L30.467 27.6019C30.4015 27.7219 30.2757 27.7966 30.1389 27.7966ZM27.9262 24.4284L29.2608 25.159C29.3236 25.1934 29.3751 25.245 29.4094 25.3077L30.1389 26.6428L30.8684 25.3077C30.9026 25.245 30.9542 25.1934 31.017 25.159L32.3516 24.4284L31.017 23.6977C30.9542 23.6634 30.9027 23.6118 30.8684 23.549L30.1389 22.214L29.4094 23.5491C29.3752 23.6119 29.3236 23.6635 29.2608 23.6978L27.9262 24.4284Z" fill="#B68C5A"/>
<path d="M34.5139 35.0001C34.7824 35.0001 35 34.7824 35 34.5139C35 34.2455 34.7824 34.0278 34.5139 34.0278C34.2454 34.0278 34.0278 34.2455 34.0278 34.5139C34.0278 34.7824 34.2454 35.0001 34.5139 35.0001Z" fill="#B68C5A"/>
<path d="M19.6797 28.9922C19.9482 28.9922 20.1658 28.7746 20.1658 28.5061C20.1658 28.2377 19.9482 28.02 19.6797 28.02C19.4112 28.02 19.1936 28.2377 19.1936 28.5061C19.1936 28.7746 19.4112 28.9922 19.6797 28.9922Z" fill="#B68C5A"/>
</svg>
