<svg viewBox="0 0 20 20" xmlns="http://www.w3.org/2000/svg" xmlns:xlink="http://www.w3.org/1999/xlink" width="20.000000" height="20.000000" fill="none">
	<rect id="check-mark 1" width="20.000000" height="20.000000" x="0.000000" y="0.000000" fill="rgb(255,255,255)" fill-opacity="0" />
	<g id="15-Checked">
		<path id="Vector" d="M8.92357 16.2489C8.85652 16.2489 8.79064 16.2313 8.73246 16.198C8.67428 16.1647 8.62582 16.1168 8.59188 16.0589C7.31392 13.8818 3.90688 9.24587 3.87265 9.19929C3.81791 9.12489 3.79179 9.03327 3.79904 8.94119C3.80629 8.84911 3.84644 8.76271 3.91215 8.69779L4.9598 7.66249C5.02379 7.59926 5.10791 7.56046 5.19754 7.55284C5.28717 7.54521 5.37663 7.56925 5.45038 7.62075L8.84353 9.98999C11.1141 7.07845 13.2231 5.06691 14.6107 3.87995C16.1728 2.54387 17.1673 1.94237 17.2089 1.9176C17.2687 1.88174 17.3371 1.86279 17.4068 1.86279L19.1017 1.86279C19.1797 1.86279 19.2558 1.88648 19.32 1.93073C19.3842 1.97498 19.4334 2.0377 19.4612 2.11057C19.4889 2.18345 19.4938 2.26303 19.4753 2.33877C19.4568 2.41451 19.4157 2.48283 19.3575 2.53468C14.5443 6.82175 9.31007 15.9628 9.25776 16.0546C9.22437 16.1132 9.17614 16.162 9.11792 16.1961C9.0597 16.2302 8.99354 16.2484 8.92607 16.2488L8.92357 16.2489Z" fill="rgb(1,28,26)" fill-rule="nonzero" />
		<path id="Vector" d="M8.84983 17.8513C5.03245 17.8513 1.92676 14.7456 1.92676 10.9282C1.92676 7.11078 5.03245 4.00513 8.84983 4.00513C9.61525 4.00428 10.3755 4.13062 11.0995 4.37898C11.196 4.41213 11.2753 4.48225 11.3201 4.57391C11.3649 4.66557 11.3714 4.77127 11.3383 4.86775C11.3051 4.96422 11.235 5.04358 11.1433 5.08836C11.0517 5.13314 10.946 5.13967 10.8495 5.10652C10.2058 4.88579 9.52995 4.77354 8.84949 4.77436C5.45622 4.77436 2.69564 7.53498 2.69564 10.9282C2.69564 14.3214 5.45622 17.0821 8.84949 17.0821C12.2428 17.0821 15.0033 14.3214 15.0033 10.9282C15.0034 10.5118 14.9616 10.0965 14.8785 9.68855C14.8684 9.63906 14.8681 9.58805 14.8777 9.53845C14.8873 9.48885 14.9066 9.44162 14.9344 9.39947C14.9623 9.35732 14.9982 9.32106 15.04 9.29278C15.0819 9.26449 15.1289 9.24473 15.1784 9.23461C15.2279 9.2245 15.2789 9.22423 15.3285 9.23383C15.3781 9.24343 15.4253 9.2627 15.4675 9.29055C15.5096 9.3184 15.5459 9.35428 15.5742 9.39614C15.6025 9.438 15.6222 9.48502 15.6323 9.53452C15.7258 9.99319 15.7728 10.4601 15.7728 10.9282C15.7729 14.7456 12.6672 17.8513 8.84983 17.8513Z" fill="rgb(1,28,26)" fill-rule="nonzero" />
	</g>
</svg>
