<svg viewBox="0 0 60 60" xmlns="http://www.w3.org/2000/svg" xmlns:xlink="http://www.w3.org/1999/xlink" width="60.000000" height="60.000000" fill="none">
	<rect id="customer-engagement 1" width="60.000000" height="60.000000" x="0.000000" y="0.000000" fill="rgb(255,255,255)" fill-opacity="0" />
	<path id="Vector" d="M8.88782 19.5546L19.5674 19.5546C19.5348 19.7835 19.5069 20.0138 19.4893 20.2471L19.4893 20.2472C19.4559 20.6927 19.6102 21.1354 19.9129 21.4615C20.2155 21.7876 20.6454 21.9746 21.0921 21.9746L38.9075 21.9746C39.3543 21.9746 39.7843 21.7875 40.0869 21.4613C40.3895 21.135 40.5438 20.6924 40.5103 20.2471C40.4928 20.0138 40.4648 19.7834 40.4322 19.5546L51.1118 19.5546C51.5359 19.5546 51.944 19.377 52.2314 19.0672C52.5188 18.7575 52.6654 18.3373 52.6338 17.9142C52.3595 14.2561 49.9678 11.1946 46.7237 9.90117C47.9774 8.89242 48.7818 7.34695 48.7818 5.61621C48.7821 2.58398 46.3154 0.117188 43.2833 0.117188C40.2512 0.117188 37.7844 2.58398 37.7844 5.61609C37.7844 7.34637 38.5884 8.8916 39.8417 9.90035C38.4401 10.4572 37.1783 11.3503 36.1756 12.5169C35.4051 11.9562 34.5579 11.4979 33.6542 11.1601C35.1542 10.0421 36.1276 8.25504 36.1276 6.24469C36.1275 2.86594 33.3787 0.117188 30 0.117188C26.6212 0.117188 23.8725 2.86594 23.8725 6.24469C23.8725 8.25504 24.8458 10.0421 26.3458 11.1601C25.4422 11.4979 24.5949 11.9563 23.8244 12.5169C22.8217 11.3503 21.5601 10.4572 20.1583 9.90035C21.4115 8.8916 22.2157 7.34637 22.2157 5.61609C22.2156 2.58398 19.7488 0.117188 16.7167 0.117188C13.6845 0.117188 11.2179 2.58398 11.2179 5.61609C11.2179 7.34672 12.0224 8.8923 13.276 9.90105C10.0318 11.1945 7.64024 14.256 7.36591 17.9139C7.33415 18.3368 7.48063 18.7571 7.76798 19.0669C8.05532 19.3768 8.46349 19.5546 8.88782 19.5546ZM39.6594 5.61609C39.6594 3.61793 41.285 1.99219 43.2833 1.99219C45.2816 1.99219 46.9072 3.61793 46.9072 5.61609C46.9072 7.61391 45.2822 9.2393 43.2845 9.24C43.2841 9.24 43.2838 9.24 43.2833 9.24C43.2828 9.24 43.2824 9.24 43.2819 9.24C41.2842 9.23918 39.6594 7.61391 39.6594 5.61609ZM43.2819 11.115L43.2833 11.115L43.2845 11.115C47.0608 11.1156 50.2593 13.9696 50.7268 17.6796L39.9866 17.6796C39.4824 16.192 38.6543 14.8548 37.5894 13.7483C39.0122 12.0875 41.0874 11.1154 43.2819 11.115ZM25.7475 6.24469C25.7475 3.89977 27.655 1.99219 30 1.99219C32.3449 1.99219 34.2525 3.89977 34.2525 6.24469C34.2525 8.58949 32.3449 10.4971 30 10.4971C27.655 10.4971 25.7475 8.58937 25.7475 6.24469ZM38.6144 20.0996L21.3855 20.0996C21.8592 15.7433 25.5883 12.3721 30 12.3721C34.4116 12.3721 38.1406 15.7432 38.6144 20.0996ZM13.0929 5.61609C13.0929 3.61793 14.7185 1.99219 16.7168 1.99219C18.715 1.99219 20.3407 3.61793 20.3407 5.61609C20.3407 7.61379 18.7158 9.23918 16.7182 9.24C16.7177 9.24 16.7172 9.24 16.7168 9.24C16.7164 9.24 16.7161 9.24 16.7156 9.24C14.7178 9.23941 13.0929 7.61391 13.0929 5.61609ZM16.7156 11.115L16.7168 11.115L16.7182 11.115C18.9126 11.1154 20.988 12.0875 22.4108 13.7483C21.346 14.8548 20.5179 16.192 20.0136 17.6796L9.27337 17.6796C9.74071 13.9696 12.9392 11.1156 16.7156 11.115ZM59.103 44.7304L55.0672 24.4718C54.9647 23.9566 54.6665 23.5116 54.228 23.2187C53.7896 22.926 53.2645 22.8212 52.7489 22.9237L47.5556 23.9584C47.0404 24.0611 46.5954 24.3591 46.3025 24.7976C46.0097 25.2361 45.9049 25.7614 46.0075 26.2766L46.0533 26.5059C42.9507 27.5309 39.1814 27.8175 34.4935 23.95C32.3401 22.1734 29.5337 22.1153 27.51 23.8049L25.4151 25.554L13.9995 25.554C13.8631 24.7758 13.2648 24.1218 12.4446 23.9584L7.25118 22.9237C6.73602 22.821 6.21056 22.9259 5.77216 23.2187C5.33364 23.5116 5.03552 23.9566 4.93298 24.4718L0.896923 44.7302C0.794267 45.2455 0.899033 45.7707 1.19188 46.2094C1.48462 46.6479 1.9297 46.9459 2.44485 47.0486L7.63825 48.0832C7.76739 48.109 7.897 48.1216 8.02591 48.1216C8.41122 48.1216 8.7888 48.0079 9.11739 47.7884C9.55591 47.4955 9.85403 47.0505 9.95657 46.5353L9.97239 46.4561L22.2595 58.7429C23.0208 59.5042 24.0207 59.8848 25.0207 59.8847C26.0206 59.8847 27.0205 59.5041 27.7817 58.7429C28.2956 58.2292 28.6481 57.5957 28.8138 56.9041L30.4957 58.5859C32.0183 60.1083 34.4956 60.108 36.018 58.5858C36.5435 58.0602 36.8878 57.4206 37.0504 56.7459C37.7775 57.4384 38.7295 57.8186 39.7425 57.8184C40.7878 57.8184 41.7684 57.4134 42.5036 56.6782C43.3427 55.839 43.7192 54.7098 43.6334 53.6104C43.7346 53.6181 43.8364 53.622 43.939 53.622C44.9842 53.622 45.9648 53.217 46.7001 52.4816C47.7268 51.455 48.0797 49.923 47.6619 48.5602L49.9843 46.2379L50.0435 46.5353C50.146 47.0505 50.4442 47.4955 50.8827 47.7884C51.2114 48.0079 51.5887 48.1216 51.9742 48.1216C52.1031 48.1216 52.2327 48.109 52.3617 48.0832L57.5551 47.0486C58.0702 46.9459 58.5153 46.6479 58.8082 46.2094C59.1009 45.7707 59.2057 45.2455 59.103 44.7304ZM8.0763 46.2289C8.06071 46.2393 8.0354 46.2504 8.0047 46.2443L2.81142 45.2096C2.78048 45.2034 2.76161 45.1836 2.75118 45.168C2.74075 45.1525 2.72962 45.1275 2.73583 45.0967L6.77165 24.838C6.77786 24.8072 6.79767 24.7884 6.81313 24.778C6.82556 24.7697 6.84431 24.7609 6.86704 24.7609C6.87267 24.7609 6.87864 24.7615 6.88462 24.7627L12.0779 25.7973C12.1282 25.8073 12.1634 25.8602 12.1536 25.9103L8.11778 46.1689C8.11169 46.1996 8.09188 46.2185 8.0763 46.2289ZM45.3742 51.1555C44.9928 51.5367 44.4831 51.7467 43.9386 51.7467C43.3942 51.7467 42.8845 51.5368 42.5034 51.1557L33.6679 42.3203C33.3016 41.9541 32.7082 41.9542 32.3421 42.3203C31.976 42.6864 31.976 43.2799 32.3421 43.646L41.1776 52.4815C41.969 53.2729 41.969 54.5607 41.1777 55.3521C40.7965 55.7332 40.2866 55.9431 39.7421 55.9431C39.1977 55.9431 38.6879 55.7332 38.3069 55.3522L28.9708 46.0161C28.6046 45.6499 28.0112 45.6502 27.645 46.0161C27.2789 46.3822 27.2789 46.9758 27.645 47.3419L34.692 54.3889L34.6957 54.3926C35.4835 55.1842 35.4822 56.4693 34.6922 57.2596C33.9006 58.0508 32.6128 58.0511 31.8214 57.2597L24.274 49.7122C23.9079 49.3461 23.3144 49.3461 22.9481 49.7122C22.582 50.0783 22.582 50.6719 22.9481 51.038L26.4562 54.5461C26.4565 54.5463 26.4567 54.5464 26.4568 54.5467C26.8376 54.9278 27.0473 55.4372 27.0473 55.9814C27.0473 56.5259 26.8373 57.0356 26.4561 57.4168C25.6649 58.2082 24.3771 58.2082 23.5856 57.4168L10.4129 44.2447L13.7628 27.429L23.1691 27.429L20.5459 29.6193C19.3811 30.5916 18.881 31.9182 19.1735 33.259L21.2859 42.9389C21.3399 43.1861 21.4915 43.401 21.7061 43.5347C21.9209 43.6685 22.1806 43.7099 22.4263 43.6493C24.9703 43.0223 26.6717 41.7956 27.6277 39.8989C28.4532 38.2612 28.6168 36.4004 28.7902 34.4304C28.8123 34.1805 28.8343 33.9293 28.858 33.6773C28.8597 33.6648 28.8616 33.6547 28.8635 33.6468C29.1986 33.5313 30.744 33.8673 33.0667 35.9779L45.7843 48.8809C46.1276 49.6432 45.9675 50.5623 45.3742 51.1555ZM46.5665 47.0034L34.3842 34.6436C34.3724 34.6316 34.3604 34.62 34.3479 34.6086C31.906 32.3839 29.6036 31.3705 28.1891 31.8983C27.5184 32.1485 27.0832 32.7196 26.9951 33.4654C26.9941 33.4727 26.9933 33.4801 26.9926 33.4876C26.9681 33.7481 26.9452 34.0079 26.9224 34.2662C26.6163 37.7455 26.3888 40.3324 22.9032 41.5556L21.0055 32.8594C20.8158 31.9901 21.3889 31.3581 21.7475 31.0587L28.7114 25.2443C30.0208 24.1511 31.8649 24.2122 33.3001 25.3963C38.5875 29.7585 43.0162 29.4369 46.4218 28.3574L49.5434 44.0268L46.5665 47.0034ZM57.2488 45.168C57.2383 45.1836 57.2195 45.2036 57.1884 45.2096L51.9951 46.2443C51.9643 46.2504 51.9392 46.2394 51.9236 46.2289C51.9081 46.2185 51.8883 46.1996 51.8822 46.1688L47.8462 25.9102C47.84 25.8795 47.8511 25.8544 47.8616 25.8389C47.872 25.8234 47.8909 25.8035 47.9218 25.7973L53.1151 24.7627C53.1213 24.7615 53.1273 24.7609 53.1328 24.7609C53.1555 24.7609 53.1743 24.7697 53.1867 24.778C53.2023 24.7884 53.2221 24.8073 53.2282 24.8381L57.264 45.0969C57.2703 45.1275 57.2592 45.1525 57.2488 45.168Z" fill="rgb(255,255,255)" fill-rule="nonzero" />
</svg>
