<svg viewBox="0 0 35 35" xmlns="http://www.w3.org/2000/svg" xmlns:xlink="http://www.w3.org/1999/xlink" width="35.000000" height="35.000000" fill="none">
	<rect id="presentation 1" width="35.000000" height="35.000000" x="0.000000" y="0.000000" fill="rgb(255,255,255)" fill-opacity="0" />
	<g id="Layer 2">
		<g id="1">
			<path id="Vector" d="M33.3491 27.0754L16.1793 27.0754C15.9625 27.0754 15.7478 27.0327 15.5475 26.9498C15.3472 26.8668 15.1652 26.7452 15.0119 26.5919C14.8586 26.4386 14.737 26.2566 14.654 26.0563C14.571 25.856 14.5283 25.6413 14.5283 25.4245L14.5283 16.8396C14.5283 16.752 14.5631 16.668 14.625 16.6061C14.687 16.5442 14.7709 16.5094 14.8585 16.5094C14.9461 16.5094 15.0301 16.5442 15.092 16.6061C15.1539 16.668 15.1887 16.752 15.1887 16.8396L15.1887 25.4245C15.1887 25.6872 15.2931 25.9392 15.4788 26.1249C15.6646 26.3107 15.9165 26.4151 16.1793 26.4151L33.3491 26.4151C33.6118 26.4151 33.8637 26.3107 34.0495 26.1249C34.2353 25.9392 34.3396 25.6872 34.3396 25.4245L34.3396 4.29242C34.3396 4.02971 34.2353 3.77775 34.0495 3.59199C33.8637 3.40622 33.6118 3.30186 33.3491 3.30186L16.1793 3.30186C15.9165 3.30186 15.6646 3.40622 15.4788 3.59199C15.2931 3.77775 15.1887 4.02971 15.1887 4.29242L15.1887 9.57544C15.1887 9.66301 15.1539 9.747 15.092 9.80892C15.0301 9.87084 14.9461 9.90563 14.8585 9.90563C14.7709 9.90563 14.687 9.87084 14.625 9.80892C14.5631 9.747 14.5283 9.66301 14.5283 9.57544L14.5283 4.29242C14.5283 3.85457 14.7023 3.43464 15.0119 3.12503C15.3215 2.81542 15.7414 2.64148 16.1793 2.64148L33.3491 2.64148C33.7869 2.64148 34.2069 2.81542 34.5165 3.12503C34.8261 3.43464 35 3.85457 35 4.29242L35 25.4245C35 25.6413 34.9573 25.856 34.8744 26.0563C34.7914 26.2566 34.6698 26.4386 34.5165 26.5919C34.3632 26.7452 34.1812 26.8668 33.9809 26.9498C33.7806 27.0327 33.5659 27.0754 33.3491 27.0754Z" fill="rgb(182,140,90)" fill-rule="nonzero" />
			<path id="Vector" d="M5.283 35L4.95281 35C4.42738 35 3.92347 34.7913 3.55194 34.4197C3.18041 34.0482 2.97168 33.5443 2.97168 33.0189L2.97168 20.8019C2.97168 20.7143 3.00647 20.6303 3.06839 20.5684C3.13031 20.5065 3.2143 20.4717 3.30187 20.4717C3.38944 20.4717 3.47342 20.5065 3.53535 20.5684C3.59727 20.6303 3.63206 20.7143 3.63206 20.8019L3.63206 33.0189C3.63206 33.3691 3.77121 33.7051 4.0189 33.9528C4.26659 34.2005 4.60253 34.3396 4.95281 34.3396L5.283 34.3396C5.63329 34.3396 5.96923 34.2005 6.21692 33.9528C6.4646 33.7051 6.60375 33.3691 6.60375 33.0189C6.60375 32.9313 6.63854 32.8473 6.70047 32.7854C6.76239 32.7234 6.84637 32.6887 6.93394 32.6887C7.02152 32.6887 7.1055 32.7234 7.16742 32.7854C7.22935 32.8473 7.26413 32.9313 7.26413 33.0189C7.26413 33.5443 7.05541 34.0482 6.68387 34.4197C6.31234 34.7913 5.80843 35 5.283 35Z" fill="rgb(182,140,90)" fill-rule="nonzero" />
			<path id="Vector" d="M6.93398 5.9434C6.34623 5.9434 5.77169 5.76911 5.28299 5.44258C4.7943 5.11604 4.41341 4.65193 4.18849 4.10892C3.96357 3.56591 3.90472 2.9684 4.01938 2.39195C4.13405 1.8155 4.41707 1.28599 4.83267 0.870392C5.24827 0.454792 5.77778 0.171765 6.35423 0.0571017C6.93068 -0.0575619 7.52819 0.00128759 8.0712 0.226208C8.61421 0.451129 9.07832 0.832019 9.40486 1.32071C9.73139 1.80941 9.90568 2.38395 9.90568 2.9717C9.90393 3.75931 9.59028 4.51416 9.03336 5.07108C8.47644 5.628 7.72159 5.94165 6.93398 5.9434ZM6.93398 0.660379C6.47684 0.660379 6.02997 0.795935 5.64988 1.04991C5.26978 1.30388 4.97354 1.66486 4.7986 2.0872C4.62366 2.50953 4.57789 2.97426 4.66707 3.42262C4.75625 3.87097 4.97639 4.28281 5.29963 4.60605C5.62287 4.92929 6.03471 5.14943 6.48306 5.23861C6.93142 5.32779 7.39614 5.28202 7.81848 5.10708C8.24082 4.93214 8.6018 4.63589 8.85577 4.2558C9.10974 3.87571 9.2453 3.42884 9.2453 2.9717C9.2453 2.3587 9.00179 1.77081 8.56833 1.33735C8.13487 0.903892 7.54698 0.660379 6.93398 0.660379Z" fill="rgb(182,140,90)" fill-rule="nonzero" />
			<path id="Vector" d="M8.91509 35L8.58491 35C8.05948 35 7.55557 34.7913 7.18403 34.4198C6.8125 34.0482 6.60377 33.5443 6.60377 33.0189L6.60377 20.8019C6.60377 20.7143 6.63856 20.6304 6.70048 20.5684C6.76241 20.5065 6.84639 20.4717 6.93396 20.4717C7.02153 20.4717 7.10552 20.5065 7.16744 20.5684C7.22936 20.6304 7.26415 20.7143 7.26415 20.8019L7.26415 33.0189C7.26415 33.3692 7.4033 33.7051 7.65099 33.9528C7.89868 34.2005 8.23462 34.3397 8.58491 34.3397L8.91509 34.3397C9.26538 34.3397 9.60132 34.2005 9.84901 33.9528C10.0967 33.7051 10.2358 33.3692 10.2358 33.0189L10.2358 11.9198C10.2379 11.7716 10.2833 11.6272 10.3665 11.5044C10.4497 11.3817 10.567 11.286 10.7039 11.2291C10.8408 11.1722 10.9914 11.1567 11.1371 11.1844C11.2827 11.2121 11.4171 11.2818 11.5236 11.3849L16.7406 16.6085C16.9455 16.8032 17.2174 16.9117 17.5 16.9117C17.7826 16.9117 18.0545 16.8032 18.2594 16.6085C18.4587 16.406 18.5703 16.1332 18.5703 15.8491C18.5703 15.565 18.4587 15.2922 18.2594 15.0897L12.3491 9.14626C11.5381 8.35305 10.4457 7.91372 9.31132 7.92456L4.29245 7.92456C3.3297 7.92631 2.40688 8.30953 1.72612 8.9903C1.04535 9.67107 0.662123 10.5939 0.660377 11.5566L0.660377 17.8302C0.655306 18.4772 0.887836 19.1035 1.31387 19.5904C1.7399 20.0773 2.3298 20.3909 2.9717 20.4717L2.9717 11.5566C2.9717 11.4691 3.00649 11.3851 3.06841 11.3232C3.13033 11.2612 3.21432 11.2264 3.30189 11.2264C3.38946 11.2264 3.47344 11.2612 3.53537 11.3232C3.59729 11.3851 3.63208 11.4691 3.63208 11.5566L3.63208 20.8019C3.63208 20.8895 3.59729 20.9735 3.53537 21.0354C3.47344 21.0973 3.38946 21.1321 3.30189 21.1321C2.42617 21.1321 1.58632 20.7842 0.9671 20.165C0.347876 19.5458 1.83292e-16 18.7059 0 17.8302L1.46633e-16 11.5566C0.00174658 10.4187 0.454547 9.32796 1.25916 8.52334C2.06377 7.71873 3.15456 7.26593 4.29245 7.26418L9.31132 7.26418C9.9619 7.26222 10.6064 7.38965 11.2072 7.63907C11.8081 7.88848 12.3534 8.25491 12.8113 8.71701L18.7547 14.6604C18.9164 14.8201 19.0449 15.0103 19.1325 15.2201C19.2201 15.4298 19.2653 15.6548 19.2653 15.8821C19.2653 16.1094 19.2201 16.3344 19.1325 16.5442C19.0449 16.7539 18.9164 16.9441 18.7547 17.1038C18.4255 17.4179 17.988 17.5931 17.533 17.5931C17.078 17.5931 16.6405 17.4179 16.3113 17.1038L11.0613 11.8868C11.0455 11.8769 11.0272 11.8716 11.0085 11.8716C10.9898 11.8716 10.9715 11.8769 10.9557 11.8868C10.9383 11.8935 10.9233 11.9052 10.9127 11.9206C10.9021 11.9359 10.8963 11.954 10.8962 11.9727L10.8962 33.0189C10.8962 33.5443 10.6875 34.0482 10.316 34.4198C9.94443 34.7913 9.44052 35 8.91509 35Z" fill="rgb(182,140,90)" fill-rule="nonzero" />
			<path id="Vector" d="M24.7641 34.9999C24.6766 34.9999 24.5926 34.9652 24.5307 34.9032C24.4687 34.8413 24.434 34.7573 24.434 34.6698L24.434 26.7452C24.434 26.6577 24.4687 26.5737 24.5307 26.5117C24.5926 26.4498 24.6766 26.415 24.7641 26.415C24.8517 26.415 24.9357 26.4498 24.9976 26.5117C25.0595 26.5737 25.0943 26.6577 25.0943 26.7452L25.0943 34.6698C25.0943 34.7573 25.0595 34.8413 24.9976 34.9032C24.9357 34.9652 24.8517 34.9999 24.7641 34.9999Z" fill="rgb(182,140,90)" fill-rule="nonzero" />
			<path id="Vector" d="M18.1604 35C18.1254 35.0063 18.0896 35.0063 18.0547 35C18.0136 34.9866 17.9756 34.9652 17.9429 34.9369C17.9103 34.9086 17.8836 34.874 17.8645 34.8352C17.8455 34.7964 17.8343 34.7542 17.8318 34.7111C17.8293 34.6679 17.8355 34.6247 17.85 34.584L20.4915 26.6595C20.5012 26.6138 20.5205 26.5708 20.548 26.5331C20.5756 26.4955 20.6108 26.4641 20.6514 26.441C20.6919 26.418 20.7369 26.4038 20.7834 26.3994C20.8298 26.395 20.8767 26.4005 20.9209 26.4156C20.965 26.4306 21.0055 26.4548 21.0396 26.4866C21.0738 26.5185 21.1008 26.5572 21.1188 26.6002C21.1369 26.6432 21.1457 26.6895 21.1445 26.7362C21.1434 26.7828 21.1324 26.8287 21.1122 26.8708L18.4707 34.7953C18.4463 34.8572 18.4034 34.9101 18.3479 34.9467C18.2923 34.9833 18.2269 35.002 18.1604 35Z" fill="rgb(182,140,90)" fill-rule="nonzero" />
			<path id="Vector" d="M31.368 35.0001C31.2991 35.0006 31.2318 34.979 31.176 34.9387C31.1201 34.8983 31.0787 34.8411 31.0576 34.7755L28.4161 26.851C28.3959 26.8089 28.3849 26.7631 28.3838 26.7164C28.3826 26.6698 28.3914 26.6234 28.4095 26.5804C28.4276 26.5374 28.4545 26.4987 28.4887 26.4669C28.5228 26.4351 28.5633 26.4108 28.6074 26.3958C28.6516 26.3808 28.6985 26.3752 28.7449 26.3796C28.7914 26.384 28.8364 26.3982 28.8769 26.4213C28.9175 26.4443 28.9527 26.4757 28.9803 26.5133C29.0079 26.551 29.0271 26.594 29.0368 26.6397L31.6783 34.5642C31.6928 34.6049 31.699 34.6482 31.6965 34.6913C31.694 34.7344 31.6828 34.7767 31.6638 34.8154C31.6447 34.8542 31.618 34.8888 31.5854 34.9171C31.5527 34.9454 31.5147 34.9669 31.4736 34.9803C31.4399 34.9932 31.4041 34.9999 31.368 35.0001Z" fill="rgb(182,140,90)" fill-rule="nonzero" />
			<path id="Vector" d="M24.7641 3.30189C24.6766 3.30189 24.5926 3.2671 24.5307 3.20518C24.4687 3.14325 24.434 3.05927 24.434 2.9717L24.434 0.330189C24.434 0.242617 24.4687 0.158632 24.5307 0.09671C24.5926 0.0347876 24.6766 8.24812e-17 24.7641 0C24.8517 5.72786e-17 24.9357 0.0347876 24.9976 0.09671C25.0595 0.158632 25.0943 0.242617 25.0943 0.330189L25.0943 2.9717C25.0943 3.05927 25.0595 3.14325 24.9976 3.20518C24.9357 3.2671 24.8517 3.30189 24.7641 3.30189Z" fill="rgb(182,140,90)" fill-rule="nonzero" />
			<path id="Vector" d="M24.7642 24.4339C23.0427 24.4425 21.3701 23.8623 20.0237 22.7897C18.6772 21.7171 17.7378 20.2165 17.3613 18.5367C17.3415 18.4518 17.356 18.3625 17.4018 18.2883C17.4476 18.214 17.5209 18.1609 17.6057 18.1405C17.6478 18.1298 17.6916 18.1276 17.7345 18.1341C17.7775 18.1407 17.8187 18.1558 17.8556 18.1786C17.8926 18.2014 17.9246 18.2314 17.9498 18.2669C17.9749 18.3023 17.9926 18.3424 18.0019 18.3849C18.2927 19.657 18.9367 20.8213 19.8597 21.7439C20.7827 22.6664 21.9473 23.3098 23.2196 23.5999C24.492 23.8901 25.8203 23.8154 27.0521 23.3843C28.2838 22.9532 29.3689 22.1832 30.1826 21.1629C30.9963 20.1427 31.5055 18.9135 31.6518 17.6167C31.798 16.3199 31.5754 15.0082 31.0094 13.8323C30.4434 12.6564 29.5571 11.6641 28.4523 10.9695C27.3475 10.2749 26.0692 9.90612 24.7642 9.90562C23.5535 9.90824 22.3644 10.2263 21.3141 10.8285C20.2638 11.4306 19.3885 12.2961 18.7745 13.3396C18.7265 13.4057 18.6556 13.4516 18.5756 13.4685C18.4956 13.4853 18.4122 13.4719 18.3415 13.4308C18.2709 13.3897 18.218 13.3239 18.193 13.2461C18.1681 13.1682 18.173 13.0839 18.2066 13.0094C18.8781 11.8597 19.8401 10.9067 20.9962 10.246C22.1522 9.58538 23.4616 9.24026 24.793 9.24529C26.1245 9.25032 27.4312 9.60532 28.5822 10.2747C29.7332 10.9441 30.688 11.9043 31.3508 13.059C32.0136 14.2138 32.3612 15.5225 32.3587 16.854C32.3561 18.1855 32.0036 19.4929 31.3364 20.6451C30.6692 21.7974 29.7108 22.7539 28.5572 23.4189C27.4037 24.0839 26.0956 24.4339 24.7642 24.4339Z" fill="rgb(182,140,90)" fill-rule="nonzero" />
			<path id="Vector" d="M31.3679 7.92454L26.7453 7.92454C26.6577 7.92454 26.5737 7.88975 26.5118 7.82783C26.4499 7.76591 26.4151 7.68192 26.4151 7.59435C26.4151 7.50678 26.4499 7.42279 26.5118 7.36087C26.5737 7.29895 26.6577 7.26416 26.7453 7.26416L31.3679 7.26416C31.4555 7.26416 31.5395 7.29895 31.6014 7.36087C31.6633 7.42279 31.6981 7.50678 31.6981 7.59435C31.6981 7.68192 31.6633 7.76591 31.6014 7.82783C31.5395 7.88975 31.4555 7.92454 31.3679 7.92454Z" fill="rgb(182,140,90)" fill-rule="nonzero" />
			<path id="Vector" d="M24.7642 7.92454L18.1604 7.92454C18.0728 7.92454 17.9888 7.88975 17.9269 7.82783C17.865 7.76591 17.8302 7.68192 17.8302 7.59435C17.8302 7.50678 17.865 7.42279 17.9269 7.36087C17.9888 7.29895 18.0728 7.26416 18.1604 7.26416L24.7642 7.26416C24.8517 7.26416 24.9357 7.29895 24.9976 7.36087C25.0596 7.42279 25.0944 7.50678 25.0944 7.59435C25.0944 7.68192 25.0596 7.76591 24.9976 7.82783C24.9357 7.88975 24.8517 7.92454 24.7642 7.92454Z" fill="rgb(182,140,90)" fill-rule="nonzero" />
			<path id="Vector" d="M28.7264 5.94334L20.8019 5.94334C20.7143 5.94334 20.6303 5.90855 20.5684 5.84663C20.5065 5.7847 20.4717 5.70072 20.4717 5.61315C20.4717 5.52558 20.5065 5.44159 20.5684 5.37967C20.6303 5.31775 20.7143 5.28296 20.8019 5.28296L28.7264 5.28296C28.814 5.28296 28.898 5.31775 28.9599 5.37967C29.0218 5.44159 29.0566 5.52558 29.0566 5.61315C29.0566 5.70072 29.0218 5.7847 28.9599 5.84663C28.898 5.90855 28.814 5.94334 28.7264 5.94334Z" fill="rgb(182,140,90)" fill-rule="nonzero" />
			<path id="Vector" d="M29.9019 22.3075C29.8127 22.3073 29.7272 22.2717 29.6642 22.2084L24.533 17.0707C24.5013 17.0412 24.4761 17.0054 24.4591 16.9656C24.442 16.9258 24.4335 16.8829 24.434 16.8396L24.434 9.57543C24.434 9.48786 24.4688 9.40387 24.5307 9.34195C24.5926 9.28003 24.6766 9.24524 24.7642 9.24524C24.8517 9.24524 24.9357 9.28003 24.9977 9.34195C25.0596 9.40387 25.0944 9.48786 25.0944 9.57543L25.0944 16.7009L30.133 21.7396C30.164 21.7703 30.1886 21.8068 30.2053 21.847C30.2221 21.8873 30.2307 21.9304 30.2307 21.974C30.2307 22.0176 30.2221 22.0608 30.2053 22.101C30.1886 22.1412 30.164 22.1778 30.133 22.2084C30.1031 22.2395 30.0672 22.2643 30.0275 22.2813C29.9878 22.2984 29.9451 22.3073 29.9019 22.3075Z" fill="rgb(182,140,90)" fill-rule="nonzero" />
			<path id="Vector" d="M19.6264 22.3076C19.5832 22.3073 19.5405 22.2984 19.5008 22.2814C19.4611 22.2644 19.4252 22.2396 19.3953 22.2085C19.3643 22.1778 19.3398 22.1413 19.323 22.101C19.3062 22.0608 19.2976 22.0177 19.2976 21.9741C19.2976 21.9305 19.3062 21.8873 19.323 21.8471C19.3398 21.8068 19.3643 21.7703 19.3953 21.7396L29.6641 11.4708C29.7263 11.4086 29.8106 11.3737 29.8986 11.3737C29.9865 11.3737 30.0708 11.4086 30.133 11.4708C30.1952 11.5329 30.2301 11.6173 30.2301 11.7052C30.2301 11.7931 30.1952 11.8775 30.133 11.9396L19.8641 22.2085C19.8012 22.2717 19.7156 22.3073 19.6264 22.3076Z" fill="rgb(182,140,90)" fill-rule="nonzero" />
		</g>
	</g>
</svg>
