<svg viewBox="0 0 60 60" xmlns="http://www.w3.org/2000/svg" xmlns:xlink="http://www.w3.org/1999/xlink" width="60.000000" height="60.000000" fill="none">
	<rect id="established 1" width="60.000000" height="60.000000" x="0.000000" y="0.000000" fill="rgb(255,255,255)" fill-opacity="0" />
	<path id="Vector" d="M48.3984 30.7392C49.9048 30.7392 51.3772 30.2925 52.6297 29.4556C53.8821 28.6188 54.8583 27.4293 55.4347 26.0377C56.0112 24.646 56.162 23.1147 55.8681 21.6373C55.5743 20.16 54.8489 18.8029 53.7838 17.7378C52.7187 16.6727 51.3616 15.9473 49.8843 15.6535C48.4069 15.3596 46.8756 15.5104 45.4839 16.0869C44.0923 16.6633 42.9028 17.6395 42.066 18.8919C41.2291 20.1444 40.7824 21.6168 40.7824 23.1231C40.7824 24.1233 40.9794 25.1137 41.3621 26.0377C41.7449 26.9617 42.3059 27.8013 43.0131 28.5085C43.7203 29.2157 44.5599 29.7767 45.4839 30.1595C46.4079 30.5422 47.3983 30.7392 48.3984 30.7392ZM43.5571 23.786C43.4679 23.6994 43.3969 23.5959 43.3481 23.4817C43.2993 23.3674 43.2737 23.2445 43.2728 23.1203C43.2719 22.996 43.2957 22.8728 43.3428 22.7578C43.39 22.6428 43.4595 22.5384 43.5474 22.4505C43.6353 22.3626 43.7397 22.2931 43.8547 22.246C43.9697 22.1989 44.0929 22.1751 44.2172 22.176C44.3414 22.1769 44.4643 22.2025 44.5785 22.2513C44.6928 22.3001 44.7962 22.3712 44.8828 22.4603L47.0057 24.5832L51.9141 19.6747C52.0914 19.5067 52.3272 19.4147 52.5714 19.418C52.8156 19.4213 53.0489 19.5198 53.2216 19.6924C53.3943 19.8651 53.4928 20.0984 53.4961 20.3426C53.4994 20.5867 53.4074 20.8226 53.2395 20.9999L47.668 26.5713C47.4922 26.7471 47.2538 26.8458 47.0051 26.8458C46.7565 26.8458 46.5181 26.7471 46.3423 26.5713L43.5566 23.7856L43.5571 23.786ZM45.4512 32.1475C45.4512 32.7122 45.4819 33.1553 45.0185 33.6186C44.7407 33.8934 44.3664 34.0486 43.9756 34.0512L29.3631 34.0512C29.1695 34.0509 28.978 34.0123 28.7994 33.9377C28.6207 33.8632 28.4586 33.7541 28.3222 33.6167L28.3204 33.6186C28.1831 33.4818 28.0742 33.3192 28 33.1402C27.9258 32.9613 27.8876 32.7694 27.8877 32.5756L27.8877 31.2421C27.8903 30.1441 28.3276 29.0918 29.104 28.3154C29.8804 27.539 30.9327 27.1017 32.0308 27.0991L35.7318 27.0991L35.7318 13.229L28.3985 13.229L28.3985 13.9743C28.3978 14.5734 28.1594 15.1478 27.7358 15.5714C27.3121 15.995 26.7378 16.2334 26.1387 16.2342L14.8334 16.2322C14.6633 16.2318 14.4966 16.1851 14.3511 16.0972C14.2056 16.0093 14.0867 15.8834 14.0073 15.733C13.9279 15.5827 13.8909 15.4135 13.9003 15.2437C13.9097 15.074 13.9652 14.91 14.0608 14.7693L16.875 10.6715L14.1195 6.66076C14.003 6.52459 13.9281 6.35786 13.9035 6.18037C13.879 6.00288 13.9059 5.82208 13.9811 5.65943C14.0563 5.49678 14.1765 5.35911 14.3276 5.26276C14.4787 5.16641 14.6542 5.11544 14.8334 5.11588L23.5602 5.11588C23.5602 4.19783 23.4687 3.46787 24.193 2.74365C24.3931 2.54294 24.6308 2.38371 24.8925 2.27511C25.1542 2.16652 25.4348 2.11069 25.7182 2.11084L36.6693 2.11084C36.7924 2.11073 36.9144 2.13491 37.0282 2.18198C37.142 2.22906 37.2453 2.29811 37.3324 2.38519C37.4195 2.47226 37.4885 2.57566 37.5356 2.68945C37.5827 2.80324 37.6069 2.9252 37.6068 3.04834L37.6068 27.099L39.7775 27.099C39.183 25.8101 38.885 24.4043 38.9056 22.9851C38.9262 21.5658 39.2648 20.1693 39.8965 18.8982C40.5283 17.6271 41.437 16.5139 42.5558 15.6405C43.6747 14.7671 44.9752 14.1557 46.3615 13.8514C47.7479 13.547 49.1849 13.5575 50.5667 13.8819C51.9485 14.2064 53.24 14.8367 54.346 15.7263C55.452 16.6159 56.3445 17.7422 56.9576 19.0223C57.5708 20.3024 57.889 21.7037 57.889 23.1231C57.889 29.6207 51.5296 34.1317 45.4507 32.1475L45.4512 32.1475ZM40.925 28.974C41.6566 29.9071 42.5557 30.6957 43.5762 31.2994L43.5762 32.1762L29.7627 32.1762L29.7627 31.2421C29.7651 30.6414 30.0049 30.0659 30.4297 29.6411C30.8545 29.2163 31.43 28.9765 32.0308 28.9741L40.925 28.974ZM10.0318 38.9738C9.96253 38.8692 9.87291 38.7795 9.7683 38.7102C9.66369 38.6408 9.54622 38.5932 9.42285 38.5701C9.29949 38.547 9.17274 38.5489 9.05012 38.5757C8.9275 38.6025 8.81152 38.6536 8.70903 38.7261L2.51954 43.1321C2.40691 43.2085 2.31234 43.3087 2.24244 43.4255C2.17255 43.5423 2.12901 43.673 2.11488 43.8084C2.10075 43.9438 2.11637 44.0806 2.16064 44.2094C2.20491 44.3381 2.27676 44.4556 2.37118 44.5537L14.9026 57.6028C15.0564 57.7626 15.262 57.8625 15.4826 57.8847C15.7033 57.9069 15.9247 57.8499 16.1072 57.7239L20.2674 54.8474C20.3694 54.7768 20.4564 54.6865 20.5233 54.5819C20.5901 54.4773 20.6354 54.3604 20.6566 54.238C20.6777 54.1157 20.6743 53.9904 20.6465 53.8694C20.6187 53.7484 20.5671 53.6341 20.4947 53.5333L19.5021 52.1521L20.167 51.6742C20.665 51.3047 21.2335 51.0411 21.8373 50.8997C22.4411 50.7583 23.0674 50.7421 23.6777 50.8522L35.5152 52.7899C36.3677 52.9412 37.2422 52.9172 38.0851 52.7192C38.928 52.5211 39.7217 52.1533 40.4176 51.6381L56.4556 40.1119C57.7037 39.2149 58.0584 38.1315 57.8213 37.0885C57.2286 34.4844 52.8703 32.8208 50.0139 34.8736L41.8576 40.7351C40.9501 41.3873 40.0881 41.8796 39.2334 42.1928C40.1241 39.8804 38.7613 36.7219 35.9741 36.2657L22.9088 34.127C22.0562 33.9756 21.1818 33.9997 20.3389 34.1977C19.4959 34.3957 18.7023 34.7636 18.0063 35.2788L10.9964 40.316L10.0318 38.9738ZM12.0866 41.8332L19.0977 36.7941C19.5957 36.4246 20.1642 36.161 20.768 36.0196C21.3718 35.8783 21.9982 35.8621 22.6085 35.972L35.6739 38.1107C37.3437 38.384 38.0469 40.552 37.3894 41.736C37.1502 42.1669 36.6924 42.4728 35.9868 42.4938L29.7343 41.4704C29.6125 41.4492 29.4877 41.4523 29.3671 41.4797C29.2465 41.5071 29.1325 41.5581 29.0318 41.6298C28.931 41.7015 28.8455 41.7925 28.7801 41.8975C28.7148 42.0025 28.6709 42.1194 28.6511 42.2414C28.6312 42.3635 28.6358 42.4883 28.6645 42.6086C28.6932 42.7289 28.7454 42.8423 28.8183 42.9422C28.8911 43.0421 28.983 43.1267 29.0887 43.1908C29.1944 43.255 29.3118 43.2976 29.4341 43.3161L35.7609 44.3517C38.4782 44.7842 40.6918 43.8727 42.9491 42.2505L51.1054 36.389C52.5233 35.3695 54.684 35.8235 55.6575 36.9065C56.1763 37.4837 56.1634 38.0207 55.3645 38.5949L39.3261 50.121C38.8281 50.4906 38.2597 50.7542 37.6559 50.8956C37.052 51.037 36.4256 51.0532 35.8153 50.9432L23.978 49.0055C23.1259 48.8588 22.2531 48.8827 21.4103 49.0758C20.1279 49.3768 19.4383 49.897 18.4118 50.6344L12.0866 41.8336L12.0866 41.8332ZM18.4227 53.8505L15.6997 55.7333L4.46978 44.039L9.03575 40.7886L18.4225 53.8503L18.4227 53.8505ZM26.5235 13.9746L26.5235 7.37561C26.523 7.27371 26.4823 7.17614 26.4102 7.1041C26.3382 7.03206 26.2406 6.99137 26.1387 6.99088L16.609 6.99088L18.777 10.1467C18.8832 10.3017 18.9402 10.4851 18.9405 10.673C18.9407 10.8609 18.8842 11.0445 18.7784 11.1998L16.6118 14.3592L26.1387 14.3592C26.2406 14.3587 26.3382 14.318 26.4103 14.2459C26.4823 14.1738 26.523 14.0762 26.5235 13.9743L26.5235 13.9746ZM28.3985 7.37584L28.3985 11.354L35.7317 11.354L35.7317 3.98572L25.7182 3.98572C25.6433 3.98631 25.5717 4.01633 25.5187 4.0693C25.4657 4.12227 25.4358 4.19395 25.4352 4.26885L25.4352 5.11588L26.1383 5.11588C26.7375 5.11653 27.3119 5.3548 27.7356 5.77843C28.1594 6.20205 28.3978 6.77645 28.3985 7.37561L28.3985 7.37584Z" fill="rgb(255,255,255)" fill-rule="evenodd" />
</svg>
