<svg viewBox="0 0 60 60" xmlns="http://www.w3.org/2000/svg" xmlns:xlink="http://www.w3.org/1999/xlink" width="60.000000" height="60.000000" fill="none">
	<rect id="quality 1" width="60.000000" height="60.000000" x="0.000000" y="0.000000" fill="rgb(255,255,255)" fill-opacity="0" />
	<path id="Vector" d="M56.8378 42.2068C58.2324 40.8126 58.9406 39.054 58.8862 37.1209L58.3603 18.5622C58.3101 16.7856 56.5171 15.1973 54.6099 15.2259C53.6844 15.2408 50.6666 15.7453 50.6889 21.6135L50.7273 31.6949C50.7286 32.0479 50.6954 32.3854 50.626 32.7117C50.5026 32.5347 50.3596 32.3642 50.1968 32.2015C48.9183 30.9231 46.822 30.9083 45.4246 32.1681C45.3932 32.1963 45.3638 32.2267 45.3365 32.2589C43.7026 34.1907 41.6994 35.879 40.0899 37.2356C39.5277 37.7093 38.9969 38.1567 38.5621 38.5487C36.7724 40.1618 36.5335 42.3985 36.5359 44.3738L36.5449 51.6968L35.4704 51.6875C35.4639 51.6875 35.4576 51.6875 35.451 51.6875C34.2356 51.6875 33.2418 52.671 33.2313 53.8885L33.2072 56.697C33.2022 57.2886 33.4287 57.8476 33.8451 58.2713C34.2614 58.6951 34.8167 58.9311 35.4081 58.9363L49.9972 59.0615L50.0168 59.0615C50.6011 59.0615 51.1526 58.8355 51.5717 58.4237C51.9953 58.0072 52.2314 57.4521 52.2365 56.8605L52.2606 54.052C52.2712 52.828 51.2838 51.8233 50.0597 51.8129L48.7185 51.8014L48.7185 50.3267L56.8378 42.2068ZM50.3853 54.0359L50.3611 56.8445C50.3601 56.9669 50.2954 57.0486 50.2568 57.0865C50.2186 57.124 50.1368 57.1865 50.016 57.1865C50.0151 57.1865 50.014 57.1865 50.0131 57.1865L35.4239 57.0613C35.2368 57.0596 35.0801 56.9002 35.0817 56.7131L35.1059 53.9046C35.1075 53.7185 35.2653 53.5625 35.4511 53.5625L35.4539 53.5625L50.0431 53.6878C50.2302 53.6894 50.3869 53.8488 50.3853 54.0359ZM38.4196 51.7128L38.4106 44.3715C38.4086 42.7308 38.5776 41.0585 39.8171 39.9413C40.2286 39.5702 40.7241 39.1528 41.2978 38.6693C42.9469 37.2795 44.9957 35.5528 46.7223 33.5233C47.3863 32.9592 48.301 32.9574 48.8707 33.5273C49.4765 34.1329 49.4807 34.8476 48.8854 35.6513C48.0218 36.6224 47.1158 37.4996 46.157 38.4275C45.6992 38.8706 45.2257 39.3287 44.7487 39.806C44.3824 40.1721 44.3826 40.7656 44.7487 41.1317C44.9317 41.3148 45.1716 41.4063 45.4116 41.4063C45.6516 41.4063 45.8915 41.3148 46.0745 41.1316C46.5408 40.6653 47.0086 40.2126 47.461 39.7749C48.4569 38.8111 49.3976 37.9008 50.3174 36.8632C50.3219 36.8581 50.3255 36.8528 50.3298 36.8476C50.3338 36.8429 50.3381 36.8389 50.342 36.8341L51.0365 35.9837C52.096 34.6794 52.6081 33.2742 52.6022 31.6876L52.5638 21.6062C52.5532 18.8059 53.3292 17.1215 54.6399 17.1006C54.6481 17.1004 54.6563 17.1003 54.6646 17.1003C55.5498 17.1003 56.4647 17.8577 56.4862 18.6152L57.012 37.1737C57.0522 38.5984 56.5476 39.8457 55.5122 40.8808L47.1178 49.2753C46.9421 49.4512 46.8433 49.6896 46.8433 49.9383L46.8433 51.7851L38.4196 51.7128ZM36.2864 55.0037C36.4646 54.5558 36.9719 54.3371 37.4197 54.5151C37.8676 54.6931 38.0863 55.2006 37.9083 55.6485C37.7302 56.0963 37.2228 56.315 36.775 56.137C36.3271 55.959 36.1084 55.4516 36.2864 55.0037ZM26.1042 52.3254C25.6806 51.9089 25.1257 51.6856 24.5299 51.6875L23.4554 51.6968L23.4644 44.3737C23.4668 42.3985 23.2279 40.1617 21.4383 38.5487C21.0035 38.1568 20.4727 37.7095 19.9108 37.2358C18.3011 35.8792 16.2976 34.1908 14.6637 32.2589C14.6365 32.2267 14.6071 32.1963 14.5757 32.1681C13.1783 30.9082 11.0821 30.9229 9.80334 32.2015C9.64056 32.3642 9.4976 32.5347 9.3742 32.7117C9.30482 32.3854 9.27154 32.0478 9.27283 31.6949L9.31127 21.6135C9.33342 15.7453 6.31572 15.2408 5.39029 15.2259C5.37213 15.2257 5.35408 15.2254 5.33592 15.2254C3.44392 15.2254 1.68951 16.8024 1.63982 18.5622L1.11389 37.1209C1.05939 39.0539 1.76767 40.8125 3.16209 42.2067L11.2819 50.3265L11.2819 51.8012L9.9408 51.8127C9.34924 51.8178 8.794 52.054 8.37764 52.4776C7.96127 52.9012 7.73474 53.4603 7.7399 54.0519L7.76404 56.8604C7.77447 58.0781 8.76846 59.0615 9.98404 59.0614L10.0031 59.0614L24.5923 58.936C25.8164 58.9255 26.8037 57.9211 26.7932 56.697L26.769 53.8885C26.7639 53.2969 26.5279 52.7419 26.1042 52.3254ZM13.1569 49.9383C13.1569 49.6896 13.0581 49.4512 12.8823 49.2753L4.48783 40.8808C3.4526 39.8457 2.94787 38.5984 2.98806 37.1738L3.51389 18.6152C3.53533 17.8577 4.4501 17.1003 5.33545 17.1003C5.34365 17.1003 5.35197 17.1004 5.36017 17.1006C6.6708 17.1217 7.44681 18.806 7.43627 21.6062L7.39783 31.6876C7.39197 33.2741 7.90408 34.6793 8.9651 35.9857L9.65803 36.8341C9.66213 36.8392 9.6667 36.8435 9.67092 36.8484C9.67502 36.8532 9.67842 36.8583 9.68252 36.8629C10.6024 37.9008 11.5433 38.8114 12.5395 39.7755C12.9918 40.213 13.4594 40.6656 13.9254 41.1316C14.1085 41.3147 14.3483 41.4062 14.5883 41.4062C14.8283 41.4062 15.0682 41.3147 15.2513 41.1316C15.6174 40.7654 15.6174 40.172 15.2513 39.8058C14.7744 39.3289 14.3012 38.871 13.8435 38.4281C12.8844 37.5 11.978 36.6224 11.1142 35.6509C10.5191 34.8474 10.5233 34.1328 11.1291 33.5273C11.6991 32.9573 12.6136 32.959 13.2775 33.5233C15.0042 35.5528 17.0531 37.2797 18.7023 38.6695C19.276 39.1529 19.7713 39.5704 20.1829 39.9415C21.4224 41.0585 21.5913 42.7308 21.5892 44.3715L21.5803 51.7129L13.1569 51.7852L13.1569 49.9383ZM24.5761 57.061L9.98709 57.1864C9.98615 57.1864 9.98521 57.1864 9.98427 57.1864C9.79842 57.1864 9.64045 57.0304 9.63881 56.8443L9.61467 54.0358C9.61361 53.9133 9.67689 53.8304 9.71474 53.792C9.7526 53.7534 9.83428 53.6887 9.95674 53.6877L24.5459 53.5624L24.5489 53.5624C24.6696 53.5624 24.7515 53.6249 24.7896 53.6625C24.8282 53.7003 24.8929 53.7821 24.8939 53.9045L24.9181 56.713C24.9198 56.9001 24.7631 57.0595 24.5761 57.061ZM23.7136 55.0037C23.8916 55.4516 23.6729 55.959 23.2251 56.137C22.7772 56.315 22.2697 56.0963 22.0917 55.6485C21.9136 55.2006 22.1324 54.6931 22.5802 54.5151C23.0281 54.3371 23.5355 54.5558 23.7136 55.0037ZM34.2892 32.5899C34.4274 32.9106 34.7324 33.1281 35.0806 33.1538C35.1039 33.1557 35.1272 33.1564 35.1504 33.1564C35.4729 33.1564 35.775 32.99 35.9468 32.7132L37.8944 29.5751L41.5126 30.316C41.8549 30.3868 42.2074 30.2601 42.4279 29.9894C42.6483 29.7185 42.6999 29.3475 42.5618 29.0267L39.8619 22.7581C39.9123 22.7367 39.9628 22.7151 40.0154 22.6926C41.4792 22.0658 42.3358 20.5822 42.1469 19.001C42.1129 18.7166 42.0811 18.4636 42.0526 18.2365C41.9399 17.3378 41.8833 16.8867 41.9419 16.5548C42.0005 16.2229 42.2079 15.8185 42.6211 15.0125C42.7255 14.8088 42.8419 14.582 42.971 14.3265C43.6894 12.9054 43.392 11.2183 42.2309 10.1285C42.0222 9.93256 41.8354 9.75924 41.6674 9.60361C41.0033 8.98756 40.6701 8.6783 40.5015 8.3865C40.333 8.09471 40.232 7.6515 40.0304 6.76838C39.9795 6.54514 39.9229 6.29646 39.8575 6.01756C39.4942 4.46728 38.1819 3.36607 36.5919 3.2776C36.3061 3.26166 36.0515 3.249 35.8228 3.23752C34.9181 3.19252 34.464 3.1699 34.1474 3.05459C33.8308 2.93939 33.4684 2.66482 32.7465 2.11791C32.564 1.97963 32.3608 1.82564 32.1314 1.65408C30.8567 0.699941 29.1436 0.699941 27.8687 1.65408C27.6394 1.82564 27.4362 1.97963 27.2536 2.11791C26.5317 2.66482 26.1694 2.93939 25.8528 3.05459C25.5361 3.16979 25.082 3.19252 24.1773 3.23752C23.9487 3.249 23.694 3.26166 23.4082 3.2776C21.8182 3.36607 20.506 4.46717 20.1428 6.01756C20.0774 6.29646 20.0207 6.54514 19.9698 6.76826C19.7684 7.65127 19.6672 8.09447 19.4987 8.38639C19.3302 8.6783 18.9969 8.98756 18.3328 9.60361C18.165 9.75924 17.9782 9.93268 17.7694 10.1285C16.6083 11.2182 16.3108 12.9053 17.0292 14.3265C17.1585 14.5821 17.2749 14.809 17.3793 15.0128C17.7925 15.8185 17.9999 16.2231 18.0585 16.5549C18.117 16.8867 18.0604 17.3379 17.9476 18.2366C17.9192 18.4637 17.8874 18.7168 17.8534 19.001C17.6644 20.5822 18.5209 22.0658 19.9848 22.6926C20.2481 22.8055 20.483 22.9045 20.694 22.9933C20.7192 23.0039 20.7428 23.0138 20.7672 23.0242L17.4496 30.1499C17.3022 30.4665 17.3429 30.8388 17.5554 31.116C17.7679 31.393 18.1169 31.5292 18.4608 31.4692L22.0992 30.8333L23.9549 34.0268C24.1232 34.3165 24.4326 34.4932 24.7654 34.4932C24.7795 34.4932 24.7938 34.4928 24.808 34.4922C25.1569 34.4763 25.468 34.2679 25.6154 33.9514L28.9458 26.7981C29.4434 26.6496 29.7489 26.5751 30.0001 26.5751C30.337 26.5751 30.7716 26.7091 31.637 26.9762C31.7228 27.0027 31.8136 27.0307 31.9074 27.0594L34.2892 32.5899ZM37.6305 27.6072C37.2458 27.5281 36.8528 27.6976 36.6458 28.0313L35.3009 30.1986L34.0521 27.2993C34.9839 27.1288 35.8287 26.5855 36.3792 25.744C36.5359 25.5043 36.6743 25.2901 36.7984 25.0978C37.2898 24.3369 37.5363 23.9549 37.7945 23.7383C37.8867 23.6608 38.0001 23.5885 38.145 23.5115L40.1294 28.119L37.6305 27.6072ZM24.6736 31.5319L23.392 29.3265C23.1948 28.9871 22.8066 28.8069 22.4201 28.874L19.9074 29.3131L22.4076 23.943C22.6074 24.1775 22.837 24.5332 23.2016 25.0978C23.3258 25.2902 23.4642 25.5043 23.6209 25.7441C24.301 26.7839 25.4306 27.3662 26.6186 27.3542L24.6736 31.5319ZM30 24.7016C29.427 24.7016 28.8539 24.8626 27.8103 25.1846C27.5946 25.2512 27.3544 25.3254 27.0843 25.4069C26.3523 25.6284 25.6088 25.3576 25.1902 24.7175C25.0356 24.4812 24.8993 24.2701 24.7769 24.0804C23.5919 22.2453 23.4351 22.1138 21.4221 21.2654C21.2141 21.1778 20.9824 21.0801 20.7229 20.969C20.0199 20.668 19.6242 19.9828 19.7151 19.2234C19.7486 18.9431 19.7799 18.6937 19.8079 18.4698C20.0797 16.3023 20.0442 16.1007 19.0474 14.1569C18.9444 13.9561 18.8297 13.7324 18.7023 13.4804C18.3573 12.798 18.4948 12.0187 19.0522 11.4955C19.258 11.3025 19.4422 11.1315 19.6077 10.978C21.2093 9.49217 21.3117 9.3151 21.7976 7.18533C21.8478 6.96514 21.9038 6.7201 21.9681 6.44518C22.1425 5.70057 22.7486 5.19221 23.5122 5.14955C23.794 5.13385 24.045 5.12143 24.2705 5.11018C26.4523 5.00154 26.6446 4.93158 28.3858 3.61252C28.5658 3.47611 28.766 3.32436 28.9921 3.15514C29.6043 2.69693 30.3956 2.69693 31.0077 3.15514C31.2338 3.32436 31.4342 3.47611 31.614 3.61252C33.3552 4.93158 33.5475 5.00166 35.7293 5.11018C35.9548 5.12143 36.2058 5.13385 36.4876 5.14955C37.2512 5.19209 37.8573 5.70068 38.0317 6.44518C38.096 6.72021 38.1521 6.96525 38.2022 7.18533C38.6881 9.3151 38.7904 9.49228 40.3921 10.978C40.5576 11.1315 40.7418 11.3025 40.9476 11.4955C41.5051 12.0188 41.6426 12.798 41.2975 13.4804C41.1701 13.7324 41.0555 13.9561 40.9525 14.1568C39.9557 16.1006 39.9202 16.3022 40.192 18.4697C40.2202 18.6936 40.2513 18.9431 40.2849 19.2234C40.3756 19.9828 39.9801 20.668 39.2771 20.969C39.0175 21.0801 38.7858 21.1778 38.5777 21.2654C36.5648 22.1137 36.408 22.2452 35.2229 24.0804C35.1005 24.27 34.9642 24.4812 34.8097 24.7174C34.3913 25.3575 33.6476 25.6284 32.9158 25.4068C32.6455 25.3253 32.4054 25.2511 32.1897 25.1845C31.1461 24.8626 30.5731 24.7016 30 24.7016ZM38.2683 14.1472C38.2683 9.58814 34.5592 5.87893 30 5.87893C25.4408 5.87893 21.7317 9.58803 21.7317 14.1472C21.7317 18.7064 25.4408 22.4156 30 22.4156C34.5592 22.4156 38.2683 18.7064 38.2683 14.1472ZM30 20.5406C26.4748 20.5406 23.6067 17.6726 23.6067 14.1472C23.6067 10.622 26.4748 7.75393 30 7.75393C33.5253 7.75393 36.3933 10.622 36.3933 14.1472C36.3933 17.6726 33.5253 20.5406 30 20.5406ZM33.6939 11.6538C34.0418 12.0371 34.0131 12.6301 33.6297 12.978L29.5227 16.7051C29.3437 16.8677 29.1181 16.9483 28.8928 16.9483C28.6524 16.9483 28.4124 16.8563 28.2298 16.6738L26.3376 14.7815C25.9715 14.4153 25.9715 13.8219 26.3376 13.4557C26.7037 13.0897 27.2972 13.0897 27.6633 13.4557L28.924 14.7165L32.3696 11.5897C32.753 11.2414 33.346 11.2703 33.6939 11.6538ZM11.6299 7.27346C11.6299 6.75572 12.0497 6.33596 12.5674 6.33596L15.4417 6.33596C15.9594 6.33596 16.3792 6.75572 16.3792 7.27346C16.3792 7.79119 15.9594 8.21096 15.4417 8.21096L12.5674 8.21096C12.0497 8.21096 11.6299 7.79119 11.6299 7.27346ZM9.66506 5.30846L9.66506 2.4342C9.66506 1.91646 10.0848 1.4967 10.6026 1.4967C11.1203 1.4967 11.5401 1.91646 11.5401 2.4342L11.5401 5.30846C11.5401 5.82619 11.1203 6.24596 10.6026 6.24596C10.0848 6.24596 9.66506 5.82619 9.66506 5.30846ZM9.66506 12.1126L9.66506 9.23822C9.66506 8.72049 10.0848 8.30072 10.6026 8.30072C11.1203 8.30072 11.5401 8.72049 11.5401 9.23822L11.5401 12.1125C11.5401 12.6302 11.1203 13.05 10.6026 13.05C10.0848 13.05 9.66506 12.6303 9.66506 12.1126ZM4.82592 7.27346C4.82592 6.75572 5.24568 6.33596 5.76342 6.33596L8.63767 6.33596C9.15541 6.33596 9.57517 6.75572 9.57517 7.27346C9.57517 7.79119 9.15541 8.21096 8.63767 8.21096L5.76342 8.21096C5.24568 8.21096 4.82592 7.79119 4.82592 7.27346ZM50.4247 7.27346C50.4247 6.75572 50.8445 6.33596 51.3622 6.33596L54.2365 6.33596C54.7542 6.33596 55.174 6.75572 55.174 7.27346C55.174 7.79119 54.7542 8.21096 54.2365 8.21096L51.3622 8.21096C50.8445 8.21096 50.4247 7.79119 50.4247 7.27346ZM48.46 5.30846L48.46 2.4342C48.46 1.91646 48.8797 1.4967 49.3975 1.4967C49.9152 1.4967 50.335 1.91646 50.335 2.4342L50.335 5.30846C50.335 5.82619 49.9152 6.24596 49.3975 6.24596C48.8797 6.24596 48.46 5.82619 48.46 5.30846ZM43.6208 7.27346C43.6208 6.75572 44.0406 6.33596 44.5583 6.33596L47.4326 6.33596C47.9503 6.33596 48.3701 6.75572 48.3701 7.27346C48.3701 7.79119 47.9503 8.21096 47.4326 8.21096L44.5583 8.21096C44.0405 8.21096 43.6208 7.79119 43.6208 7.27346ZM48.46 12.1126L48.46 9.23822C48.46 8.72049 48.8797 8.30072 49.3975 8.30072C49.9152 8.30072 50.335 8.72049 50.335 9.23822L50.335 12.1125C50.335 12.6302 49.9152 13.05 49.3975 13.05C48.8797 13.05 48.46 12.6303 48.46 12.1126Z" fill="rgb(255,255,255)" fill-rule="nonzero" />
</svg>
