<svg width="12" height="12" viewBox="0 0 12 12" fill="none" xmlns="http://www.w3.org/2000/svg">
<path d="M6.08497 3.34619C7.68458 3.34619 9.0049 4.6665 9.0049 6.26611C9.0049 7.89111 7.68458 9.18604 6.08497 9.18604C4.45997 9.18604 3.16505 7.89111 3.16505 6.26611C3.16505 4.6665 4.45997 3.34619 6.08497 3.34619ZM6.08497 8.17041C7.12599 8.17041 7.96388 7.33252 7.96388 6.26611C7.96388 5.2251 7.12599 4.38721 6.08497 4.38721C5.01857 4.38721 4.18068 5.2251 4.18068 6.26611C4.18068 7.33252 5.04396 8.17041 6.08497 8.17041ZM9.79201 3.24463C9.79201 3.62549 9.48732 3.93018 9.10646 3.93018C8.7256 3.93018 8.42091 3.62549 8.42091 3.24463C8.42091 2.86377 8.7256 2.55908 9.10646 2.55908C9.48732 2.55908 9.79201 2.86377 9.79201 3.24463ZM11.7217 3.93018C11.7725 4.86963 11.7725 7.68799 11.7217 8.62744C11.6709 9.5415 11.4678 10.3286 10.8076 11.0142C10.1475 11.6743 9.33497 11.8774 8.42091 11.9282C7.48146 11.979 4.6631 11.979 3.72365 11.9282C2.80958 11.8774 2.02247 11.6743 1.33693 11.0142C0.676771 10.3286 0.473646 9.5415 0.422865 8.62744C0.372084 7.68799 0.372084 4.86963 0.422865 3.93018C0.473646 3.01611 0.676771 2.20361 1.33693 1.54346C2.02247 0.883301 2.80958 0.680176 3.72365 0.629395C4.6631 0.578613 7.48146 0.578613 8.42091 0.629395C9.33497 0.680176 10.1475 0.883301 10.8076 1.54346C11.4678 2.20361 11.6709 3.01611 11.7217 3.93018ZM10.5029 9.61768C10.8076 8.88135 10.7315 7.104 10.7315 6.26611C10.7315 5.45361 10.8076 3.67627 10.5029 2.91455C10.2998 2.43213 9.91896 2.02588 9.43654 1.84814C8.67482 1.54346 6.89747 1.61963 6.08497 1.61963C5.24708 1.61963 3.46974 1.54346 2.73341 1.84814C2.2256 2.05127 1.84474 2.43213 1.64161 2.91455C1.33693 3.67627 1.4131 5.45361 1.4131 6.26611C1.4131 7.104 1.33693 8.88135 1.64161 9.61768C1.84474 10.1255 2.2256 10.5063 2.73341 10.7095C3.46974 11.0142 5.24708 10.938 6.08497 10.938C6.89747 10.938 8.67482 11.0142 9.43654 10.7095C9.91896 10.5063 10.3252 10.1255 10.5029 9.61768Z" fill="white"/>
</svg>
