<svg width="16" height="16" viewBox="0 0 16 16" fill="none" xmlns="http://www.w3.org/2000/svg">
<path d="M14.3999 14.4V9.712C14.3999 7.408 13.9039 5.648 11.2159 5.648C9.91993 5.648 9.05593 6.352 8.70393 7.024H8.67193V5.856H6.12793V14.4H8.78393V10.16C8.78393 9.04 8.99193 7.968 10.3679 7.968C11.7279 7.968 11.7439 9.232 11.7439 10.224V14.384H14.3999V14.4Z" fill="white"/>
<path d="M1.80798 5.856H4.46398V14.4H1.80798V5.856Z" fill="white"/>
<path d="M3.13598 1.6C2.28798 1.6 1.59998 2.288 1.59998 3.136C1.59998 3.984 2.28798 4.688 3.13598 4.688C3.98398 4.688 4.67198 3.984 4.67198 3.136C4.67198 2.288 3.98398 1.6 3.13598 1.6Z" fill="white"/>
</svg>
