<svg width="16" height="17" viewBox="0 0 16 17" fill="none" xmlns="http://www.w3.org/2000/svg">
<path d="M14.5938 2.875H1.40625C0.629281 2.875 0 3.50819 0 4.28125V12.7188C0 13.4964 0.633906 14.125 1.40625 14.125H14.5938C15.3642 14.125 16 13.4991 16 12.7188V4.28125C16 3.50956 15.3732 2.875 14.5938 2.875ZM14.3968 3.8125C14.1095 4.09828 9.16509 9.01666 8.99438 9.18647C8.72875 9.45209 8.37562 9.59834 8 9.59834C7.62437 9.59834 7.27125 9.45206 7.00475 9.18559C6.88994 9.07137 2.00009 4.20731 1.60319 3.8125H14.3968ZM0.9375 12.5279V4.47266L4.98869 8.5025L0.9375 12.5279ZM1.60378 13.1875L5.65338 9.16366L6.34272 9.84937C6.78541 10.2921 7.37397 10.5358 8 10.5358C8.62603 10.5358 9.21459 10.2921 9.65641 9.85025L10.3466 9.16366L14.3962 13.1875H1.60378ZM15.0625 12.5279L11.0113 8.5025L15.0625 4.47266V12.5279Z" fill="white"/>
</svg>
