<svg width="35" height="36" viewBox="0 0 35 36" fill="none" xmlns="http://www.w3.org/2000/svg">
<g clip-path="url(#clip0_1_925)">
<path d="M34.6673 10.5495C34.4641 10.266 34.1809 10.0482 33.8533 9.92369L33.4491 9.76955C33.8634 7.55221 33.1544 5.69171 31.6152 4.99807C29.9298 4.23892 27.6427 5.06666 25.8873 6.8894L22.8205 5.71945C23.5202 3.22466 22.8594 1.05587 21.1413 0.282076C19.1302 -0.623512 16.2787 0.723694 14.4813 3.31406L10.1645 4.87475C9.84938 4.98909 9.57284 5.18851 9.36607 5.45048L9.35752 5.46281C9.11893 5.77277 8.98973 6.1519 8.98981 6.54181V8.19113C8.48134 8.06493 7.95918 8.00099 7.43502 8.00076C3.57135 8.00076 0.428332 11.4243 0.428332 15.6308C0.428332 18.3938 1.78334 20.8185 3.80768 22.1572C2.83624 23.1497 1.79727 24.0749 0.698089 24.9264C0.456206 25.1125 0.266584 25.3571 0.147391 25.6367C0.0281975 25.9163 -0.0165733 26.2216 0.0173677 26.5233C0.0513087 26.8249 0.162824 27.1129 0.34123 27.3596C0.519636 27.6063 0.758955 27.8035 1.03626 27.9322L18.0302 35.8327C18.2686 35.9434 18.5287 36.0008 18.792 36.0008C19.1533 36.0012 19.5061 35.8917 19.8026 35.6871C20.3692 35.2921 20.9113 34.8636 21.4258 34.4038L23.4517 35.3241C23.6854 35.4294 23.9391 35.4838 24.1957 35.4836C24.2431 35.4836 24.2906 35.4836 24.3388 35.4775C24.3514 35.4782 24.3642 35.4782 24.3768 35.4775C24.6067 35.4547 24.83 35.3882 25.0345 35.2817L33.1848 30.9965C33.4709 30.8444 33.7099 30.6179 33.876 30.3413C34.0421 30.0647 34.1292 29.7485 34.1277 29.4266V16.4208C34.3933 16.2636 34.6132 16.0408 34.766 15.7741C34.9187 15.5075 34.9991 15.2061 34.9992 14.8994V11.5784C35.0005 11.2094 34.8843 10.8493 34.6673 10.5495ZM33.6854 10.3553C33.8441 10.4158 33.9896 10.5061 34.1138 10.6212L29.9415 12.9726C29.7686 13.0708 29.5755 13.1287 29.3767 13.1421C29.1779 13.1554 28.9787 13.1238 28.794 13.0497L25.941 11.9067C26.0755 11.1722 26.3355 10.4659 26.7098 9.81811C27.0491 9.21425 27.4749 8.66233 27.9739 8.17957L33.6854 10.3553ZM28.3664 7.83275C29.2387 7.13294 30.1591 6.83082 30.816 7.12292C31.403 7.38805 31.6992 8.10867 31.6354 9.07899L28.3664 7.83275ZM31.4224 5.41888C32.7401 6.01156 33.3503 7.63699 33.006 9.60077L32.0894 9.24855C32.2083 8.0077 31.8119 7.06127 31.0088 6.69903C29.6344 6.08246 27.5673 7.34951 26.3025 9.58766C25.8718 10.3327 25.585 11.1508 25.4566 12C25.4527 12.018 25.4506 12.0363 25.4504 12.0547C25.3797 12.6297 25.4123 13.1645 25.56 13.6108C25.7241 14.1079 26.0218 14.4786 26.4245 14.6898C26.4649 14.8154 26.524 15.0836 26.3926 15.3064C26.2613 15.5291 25.9441 15.6801 25.4769 15.7349C24.8145 15.4173 24.3286 14.8362 24.0682 14.0509C23.8078 13.2655 23.7876 12.3129 23.9959 11.3302V11.3187C24.1759 10.5044 24.4783 9.72165 24.893 8.99653C26.5147 6.1341 29.4424 4.52793 31.4224 5.41888ZM25.5546 7.25703C25.1502 7.72702 24.7929 8.23501 24.488 8.77379C24.0951 9.46343 23.7973 10.2022 23.6026 10.9703L15.4103 7.6894C15.4531 6.89865 15.7384 5.98227 16.2359 5.10134C16.4566 4.71097 16.7127 4.34131 17.0009 3.99691L21.1289 5.56994L21.146 5.57687L25.5546 7.25703ZM17.336 3.62774C18.3543 2.57726 19.5453 2.04778 20.3453 2.4077C21.0675 2.73603 21.3442 3.75876 21.0675 5.04971L17.336 3.62774ZM20.9485 0.702885C22.438 1.37341 23.0009 3.30481 22.3828 5.55298L21.5044 5.21849C21.8581 3.67167 21.4873 2.41541 20.5349 1.98689C19.1597 1.37032 17.0934 2.6366 15.8294 4.87552C15.2689 5.86666 14.961 6.91252 14.9416 7.81194C14.9385 7.83186 14.9385 7.85214 14.9416 7.87206C14.9336 8.21949 14.9824 8.56592 15.0862 8.89787C15.2502 9.39421 15.5479 9.7657 15.9506 9.97687C16.0183 10.1819 16.0952 10.5749 15.9234 10.8054C15.7516 11.0358 15.3458 11.059 15.0232 11.032C14.3507 10.7175 13.8571 10.1318 13.5943 9.33641C13.3751 8.6736 13.3261 7.90905 13.4389 7.10134C13.4392 7.09441 13.4392 7.08747 13.4389 7.08053C13.5895 6.09538 13.9227 5.14635 14.4215 4.2813C16.0408 1.41811 18.9685 -0.18883 20.9485 0.702885ZM10.3246 5.30944L14.0755 3.95606C14.0553 3.98998 14.0343 4.02389 14.0149 4.05857C13.5382 4.8902 13.2038 5.79443 13.0253 6.73448L9.96389 5.50828C10.073 5.42382 10.1947 5.35673 10.3246 5.30944ZM9.4547 6.54258C9.45571 6.30827 9.51957 6.07845 9.63972 5.87668L12.9577 7.20539C12.8651 8.02234 12.9273 8.79999 13.1528 9.48207C13.4637 10.4162 14.0546 11.1006 14.8677 11.4697C14.8909 11.4799 14.9156 11.4864 14.9408 11.489C15.0434 11.499 15.1414 11.5037 15.2339 11.5037C15.7322 11.5037 16.089 11.3611 16.3005 11.079C16.6954 10.548 16.3681 9.75491 16.3541 9.72177C16.3314 9.66771 16.2889 9.62419 16.2352 9.59999C15.904 9.45125 15.6669 9.16608 15.5308 8.75221C15.472 8.56922 15.4342 8.38022 15.4181 8.18882L23.503 11.4258C23.3188 12.4216 23.3546 13.378 23.6251 14.1958C23.9361 15.1299 24.5277 15.8143 25.34 16.1827C25.3703 16.1963 25.4032 16.2034 25.4364 16.2035H25.459C26.1283 16.1395 26.5792 15.9152 26.7992 15.5368C27.0938 15.0274 26.8342 14.4532 26.8233 14.4293C26.7998 14.3787 26.7587 14.3382 26.7075 14.3152C26.3763 14.1657 26.1392 13.8805 26.0032 13.4674C25.8963 13.1156 25.8565 12.747 25.8858 12.3807L28.6191 13.4751C28.8072 13.5499 29.0067 13.5926 29.2091 13.6015L29.2962 18.2428C29.1805 18.2332 29.0665 18.2086 28.9573 18.1695L13.8874 12.6659C13.0813 10.5911 11.4557 8.98265 9.45625 8.32446L9.4547 6.54258ZM0.890883 15.637C0.890883 11.684 3.82478 8.46936 7.43113 8.46936C11.0375 8.46936 13.9714 11.6855 13.9714 15.637C13.9714 19.5884 11.0375 22.8046 7.43113 22.8046C3.82478 22.8046 0.890883 19.583 0.890883 15.6308V15.637ZM9.54254 22.9133L10.2018 23.2216C10.2923 23.2634 10.3726 23.3242 10.4372 23.3998C10.5017 23.4754 10.549 23.5639 10.5757 23.6593C10.6035 23.7562 10.6096 23.8578 10.5938 23.9572C10.578 24.0566 10.5405 24.1514 10.484 24.2351C9.76747 25.3124 8.96135 26.3284 8.07404 27.2724C7.9729 27.3799 7.83995 27.4527 7.69436 27.4804C7.54877 27.5081 7.39807 27.4893 7.26399 27.4266L4.78875 26.269C4.6468 26.2027 4.52435 26.1015 4.43307 25.975C4.34179 25.8485 4.28473 25.7009 4.26735 25.5463C4.24996 25.3917 4.27283 25.2353 4.33376 25.092C4.39469 24.9486 4.49165 24.8232 4.6154 24.7275C5.23968 24.2431 5.83854 23.7274 6.40963 23.1823C7.46057 23.3511 8.53739 23.2573 9.54254 22.9094V22.9133ZM19.529 35.3071C19.3394 35.437 19.1187 35.5151 18.8891 35.5336C18.6594 35.5522 18.4289 35.5105 18.2206 35.4127L1.2275 27.5144C1.02261 27.4193 0.845784 27.2736 0.713954 27.0914C0.582123 26.9091 0.499701 26.6963 0.47458 26.4734C0.449459 26.2505 0.48248 26.0249 0.570481 25.8183C0.658481 25.6116 0.798515 25.4309 0.977174 25.2932C2.12146 24.4073 3.20183 23.4431 4.21037 22.4077C4.72508 22.7002 5.27739 22.9221 5.85223 23.0674C5.36325 23.5206 4.85328 23.9553 4.32854 24.3615C4.14144 24.5058 3.99482 24.6953 3.90268 24.9118C3.81053 25.1284 3.77595 25.3647 3.80223 25.5983C3.82851 25.8319 3.91478 26.0549 4.05279 26.246C4.1908 26.4371 4.37594 26.5899 4.59052 26.6898L7.06731 27.8412C7.29083 27.9452 7.54186 27.9761 7.78425 27.9296C8.02664 27.883 8.24788 27.7614 8.41609 27.5823C9.3204 26.6193 10.1421 25.5832 10.8727 24.4848C10.9659 24.3464 11.028 24.1898 11.0546 24.0255C11.0811 23.8612 11.0716 23.6931 11.0267 23.5328C10.9817 23.3725 10.9024 23.2237 10.7941 23.0965C10.6858 22.9694 10.5511 22.8669 10.3992 22.7961L10.1334 22.6728C12.6591 21.5168 14.4378 18.7977 14.4378 15.6324C14.4387 14.8192 14.319 14.0103 14.0825 13.2316L28.7956 18.6073C28.9526 18.6644 29.1169 18.6992 29.2838 18.7106C28.8728 20.5878 28.3067 22.4283 27.5914 24.2135V24.2235C26.2099 27.6879 23.6966 32.4146 19.529 35.3071ZM24.1848 35.0189C23.9971 35.0191 23.8116 34.9794 23.6406 34.9025L21.7912 34.0655C24.2385 31.7626 25.9845 28.884 27.1848 26.3283C26.5116 29.3261 25.5055 32.2408 24.1848 35.0189ZM33.6613 29.4266C33.6613 29.6641 33.5962 29.8971 33.473 30.1007C33.3497 30.3043 33.173 30.4709 32.9616 30.5827L24.8114 34.8678L24.764 34.8894C25.4691 33.3888 27.2563 29.2509 28.0361 24.3568C29.2573 21.2778 29.7378 18.8308 29.7665 18.6782C29.9421 18.6436 30.1113 18.5831 30.2687 18.4986L33.6613 16.6744V29.4266ZM34.5328 14.8994C34.5328 15.1352 34.4685 15.3667 34.3469 15.5693C34.2253 15.772 34.0507 15.9384 33.8417 16.0509L30.0441 18.094C29.9547 18.1417 29.86 18.179 29.7619 18.205L29.6748 13.5645C29.849 13.5262 30.0164 13.4623 30.1716 13.3749L34.3952 10.995C34.4865 11.1761 34.5339 11.3759 34.5335 11.5784L34.5328 14.8994Z" fill="#B68C5A"/>
<path d="M21.1522 27.7935L18.7267 26.6667C18.4764 26.5491 18.1918 26.5241 17.9246 26.5965C17.6573 26.6689 17.425 26.8338 17.2699 27.0613C16.5934 28.0539 15.8396 28.9924 15.0154 29.8683C14.89 30.0018 14.7982 30.1628 14.7476 30.3381C14.697 30.5135 14.6889 30.6982 14.7241 30.8773C14.7593 31.0563 14.8367 31.2246 14.95 31.3683C15.0633 31.512 15.2093 31.6271 15.3761 31.7041L17.182 32.5442C17.3667 32.6299 17.5681 32.6743 17.7721 32.6745C18.0525 32.675 18.3264 32.59 18.5564 32.4309C19.7005 31.622 20.7179 30.6502 21.5759 29.5469C21.6832 29.4114 21.7581 29.2536 21.795 29.0852C21.8319 28.9169 21.8298 28.7424 21.7889 28.575C21.7489 28.4057 21.6709 28.2474 21.5606 28.1121C21.4504 27.9768 21.3108 27.8679 21.1522 27.7935ZM21.212 29.2579C20.3824 30.3253 19.3985 31.2657 18.2921 32.0486C18.1604 32.139 18.007 32.1934 17.8473 32.2063C17.6876 32.2191 17.5273 32.19 17.3826 32.1219L15.5767 31.2825C15.4757 31.2359 15.3874 31.1661 15.3191 31.0788C15.2508 30.9916 15.2045 30.8894 15.1841 30.7808C15.1628 30.6745 15.1676 30.5646 15.1979 30.4604C15.2282 30.3563 15.2831 30.2608 15.3582 30.182C16.1982 29.288 16.9665 28.3305 17.6562 27.318C17.7194 27.2249 17.8047 27.1486 17.9046 27.0959C18.0045 27.0433 18.116 27.0158 18.2292 27.0159C18.3326 27.016 18.4348 27.0386 18.5285 27.0822L20.9539 28.2105C21.0496 28.2548 21.1339 28.3199 21.2005 28.4011C21.2672 28.4822 21.3144 28.5773 21.3388 28.6791C21.3634 28.7791 21.3648 28.8834 21.3429 28.9841C21.3209 29.0848 21.2762 29.1792 21.212 29.2602V29.2579Z" fill="#B68C5A"/>
<path d="M16.344 26.0114C16.3002 25.849 16.2211 25.698 16.1122 25.5691C16.0032 25.4402 15.8672 25.3366 15.7135 25.2654L13.4054 24.1918C13.1508 24.0738 12.8618 24.0509 12.5916 24.1274C12.3213 24.2039 12.088 24.3745 11.9346 24.608C11.2845 25.6085 10.5597 26.5594 9.76642 27.4527C9.64556 27.587 9.55801 27.7474 9.51072 27.9211C9.46343 28.0949 9.45771 28.2772 9.49403 28.4536C9.53034 28.6299 9.60768 28.7954 9.71988 28.9369C9.83209 29.0783 9.97607 29.1919 10.1403 29.2685L12.2829 30.265C12.4363 30.3365 12.6038 30.3733 12.7734 30.3729C13.0851 30.3727 13.3839 30.2499 13.6044 30.0315C14.5478 29.0887 15.4062 28.0659 16.1698 26.9748C16.2679 26.8365 16.3343 26.6787 16.3644 26.5122C16.3945 26.3458 16.3875 26.1749 16.344 26.0114ZM15.7897 26.7113C15.0423 27.7799 14.2018 28.7816 13.2779 29.7047C13.1759 29.8062 13.045 29.8742 12.9028 29.8996C12.7606 29.9249 12.6139 29.9064 12.4826 29.8465L10.3394 28.8492C10.2406 28.8045 10.1539 28.7373 10.0863 28.6531C10.0188 28.5688 9.97227 28.4699 9.95066 28.3644C9.92811 28.258 9.93113 28.1477 9.95949 28.0426C9.98785 27.9375 10.0407 27.8405 10.1139 27.7594C10.9225 26.8485 11.6615 25.8791 12.3248 24.8592C12.3885 24.7628 12.4755 24.6836 12.5778 24.6288C12.6802 24.574 12.7947 24.5454 12.911 24.5455C13.0129 24.5453 13.1136 24.5677 13.2056 24.6111L15.5145 25.6839C15.6065 25.7266 15.6879 25.7887 15.753 25.8659C15.8182 25.9432 15.8654 26.0336 15.8915 26.1309C15.9186 26.2291 15.9234 26.332 15.9058 26.4323C15.8882 26.5326 15.8486 26.6279 15.7897 26.7113Z" fill="#B68C5A"/>
<path d="M24.8907 20.01L22.4808 19.0435C22.335 18.9855 22.1788 18.9574 22.0217 18.9607C21.8646 18.9641 21.7099 18.9989 21.5667 19.063C21.4235 19.1271 21.2949 19.2193 21.1885 19.3339C21.0822 19.4486 21.0003 19.5834 20.9478 19.7302C20.5388 20.8616 20.081 21.9653 19.5865 23.0034C19.5208 23.1409 19.4831 23.2899 19.4756 23.4419C19.4681 23.5939 19.491 23.7458 19.5428 23.889C19.5947 24.0322 19.6745 24.1639 19.7778 24.2764C19.8811 24.3889 20.0058 24.4802 20.1447 24.5448L22.6526 25.7109C22.7925 25.7754 22.9439 25.8117 23.0981 25.8178C23.2523 25.8238 23.4062 25.7995 23.5508 25.7462C23.6954 25.6928 23.8279 25.6116 23.9406 25.5071C24.0533 25.4026 24.144 25.277 24.2074 25.1375C24.7526 23.9232 25.2101 22.672 25.5764 21.3934C25.6537 21.1196 25.6265 20.8271 25.5001 20.5719C25.3736 20.3166 25.1566 20.1166 24.8907 20.01ZM25.1239 21.2678C24.7672 22.523 24.3209 23.7516 23.7884 24.9441C23.7503 25.0277 23.6959 25.1031 23.6282 25.1657C23.5606 25.2284 23.4811 25.2771 23.3943 25.3091C23.3076 25.341 23.2153 25.3556 23.1228 25.352C23.0303 25.3483 22.9394 25.3265 22.8555 25.2878L20.3422 24.1233C20.2589 24.0843 20.1843 24.0295 20.1224 23.9619C20.0606 23.8943 20.0128 23.8153 19.9819 23.7294C19.9509 23.6435 19.9373 23.5524 19.9419 23.4613C19.9465 23.3701 19.9692 23.2808 20.0087 23.1984C20.5093 22.1448 20.9726 21.0296 21.387 19.8843C21.4178 19.7953 21.4668 19.7134 21.5308 19.6439C21.5948 19.5743 21.6725 19.5184 21.7591 19.4798C21.8457 19.4412 21.9394 19.4205 22.0344 19.4192C22.1294 19.4179 22.2236 19.4358 22.3113 19.472L24.7212 20.4393C24.8801 20.5044 25.0092 20.6253 25.0839 20.7788C25.1586 20.9324 25.1737 21.1078 25.1263 21.2716L25.1239 21.2678Z" fill="#B68C5A"/>
<path d="M14.741 22.0286L17.1587 23.1523C17.4376 23.2817 17.7568 23.2964 18.0466 23.1933C18.3365 23.0902 18.5734 22.8777 18.7057 22.602C19.2095 21.5446 19.6751 20.4255 20.091 19.2772C20.1933 18.9971 20.182 18.6886 20.0597 18.4165C19.9373 18.1445 19.7134 17.93 19.4349 17.8182L16.9255 16.8109C16.7794 16.7517 16.6228 16.7226 16.465 16.7253C16.3072 16.7279 16.1517 16.7623 16.0077 16.8262C15.8637 16.8902 15.7343 16.9825 15.6274 17.0975C15.5204 17.2125 15.4381 17.3478 15.3855 17.4953C15.0209 18.528 14.6135 19.54 14.175 20.5011C14.0487 20.7784 14.0372 21.0939 14.1431 21.3795C14.2489 21.6652 14.4636 21.8983 14.741 22.0286ZM14.6003 20.6945C15.0442 19.7203 15.4554 18.696 15.8255 17.6502C15.8571 17.562 15.9064 17.4811 15.9703 17.4124C16.0343 17.3436 16.1116 17.2884 16.1977 17.25C16.2837 17.2116 16.3767 17.1909 16.4711 17.1891C16.5654 17.1872 16.6592 17.2044 16.7467 17.2394L19.2553 18.2467C19.4222 18.3138 19.5564 18.4421 19.6303 18.6049C19.7041 18.7677 19.7118 18.9524 19.6518 19.1207C19.2413 20.2552 18.7811 21.3604 18.2836 22.4047C18.2044 22.5701 18.0625 22.6978 17.8888 22.7599C17.715 22.8219 17.5236 22.8134 17.3562 22.7361L14.9392 21.6117C14.7722 21.534 14.6428 21.394 14.5793 21.2223C14.5158 21.0505 14.5234 20.8608 14.6003 20.6945Z" fill="#B68C5A"/>
<path d="M10.9123 15.6309C10.9123 12.7746 8.87708 10.4517 6.37541 10.4517C3.87374 10.4517 1.83929 12.7746 1.83929 15.6309C1.83929 18.4871 3.87452 20.8093 6.37463 20.8093C8.87474 20.8093 10.9123 18.4863 10.9123 15.6309ZM6.37463 20.3468C4.13029 20.3468 2.30496 18.2312 2.30496 15.6309C2.30496 13.0305 4.13029 10.9141 6.37463 10.9141C8.61898 10.9141 10.4451 13.0297 10.4451 15.6309C10.4451 18.232 8.61976 20.3468 6.37463 20.3468Z" fill="#B68C5A"/>
</g>
<defs>
<clipPath id="clip0_1_925">
<rect width="35" height="36" fill="white"/>
</clipPath>
</defs>
</svg>
