<svg width="16" height="17" viewBox="0 0 16 17" fill="none" xmlns="http://www.w3.org/2000/svg">
<g clip-path="url(#clip0_1_658)">
<path d="M12.645 10.4114C12.3175 10.0704 11.9224 9.88801 11.5036 9.88801C11.0883 9.88801 10.6898 10.067 10.3487 10.4081L9.28163 11.4718C9.19383 11.4245 9.10603 11.3806 9.02161 11.3367C8.90004 11.2759 8.78522 11.2185 8.68729 11.1577C7.68773 10.5229 6.77934 9.69553 5.9081 8.62505C5.48598 8.0915 5.20232 7.64237 4.99633 7.18648C5.27324 6.93322 5.52988 6.66982 5.77978 6.41655C5.87433 6.32199 5.96888 6.22406 6.06344 6.12951C6.77259 5.42036 6.77259 4.50184 6.06344 3.79269L5.14154 2.87079C5.03686 2.76611 4.92879 2.65805 4.82749 2.54999C4.62487 2.34062 4.41213 2.1245 4.19263 1.92188C3.86507 1.5977 3.47335 1.42548 3.06136 1.42548C2.64938 1.42548 2.25091 1.5977 1.91321 1.92188C1.90984 1.92526 1.90984 1.92526 1.90646 1.92864L0.758312 3.08692C0.326068 3.51916 0.0795532 4.04596 0.0255227 4.65718C-0.0555231 5.64324 0.234891 6.56176 0.457767 7.16284C1.00483 8.63855 1.82204 10.0062 3.0411 11.4718C4.52019 13.2379 6.29982 14.6326 8.33272 15.6152C9.10941 15.9833 10.1461 16.419 11.3044 16.4932C11.3753 16.4966 11.4496 16.5 11.5171 16.5C12.2972 16.5 12.9523 16.2197 13.4656 15.6625C13.469 15.6558 13.4758 15.6524 13.4791 15.6456C13.6547 15.4329 13.8573 15.2404 14.0701 15.0344C14.2153 14.896 14.3639 14.7508 14.5091 14.5988C14.8434 14.251 15.019 13.8457 15.019 13.4304C15.019 13.0117 14.84 12.6098 14.499 12.2721L12.645 10.4114ZM13.854 13.9673C13.8506 13.9673 13.8506 13.9707 13.854 13.9673C13.7223 14.1091 13.5872 14.2375 13.442 14.3793C13.2225 14.5887 12.9996 14.8082 12.7902 15.0547C12.4492 15.4194 12.0473 15.5916 11.5205 15.5916C11.4699 15.5916 11.4158 15.5916 11.3652 15.5882C10.3622 15.5241 9.43021 15.1324 8.73119 14.798C6.81986 13.8728 5.14154 12.5591 3.74688 10.8943C2.59535 9.50642 1.82542 8.22319 1.3155 6.84542C1.00145 6.00457 0.886634 5.34944 0.937288 4.73147C0.971057 4.33637 1.12302 4.00881 1.4033 3.72853L2.55483 2.577C2.7203 2.42166 2.8959 2.33724 3.06812 2.33724C3.28086 2.33724 3.45309 2.46556 3.56115 2.57363C3.56452 2.577 3.5679 2.58038 3.57128 2.58376C3.77727 2.77624 3.97313 2.97548 4.17912 3.18822C4.2838 3.29628 4.39187 3.40435 4.49993 3.51578L5.42182 4.43768C5.77978 4.79563 5.77978 5.12657 5.42182 5.48452C5.32389 5.58245 5.22934 5.68038 5.13141 5.77493C4.84775 6.06535 4.5776 6.3355 4.2838 6.5989C4.27705 6.60565 4.2703 6.60903 4.26692 6.61579C3.97651 6.9062 4.03054 7.18986 4.09132 7.38234C4.0947 7.39247 4.09807 7.40261 4.10145 7.41274C4.34121 7.99356 4.6789 8.54062 5.19219 9.19237L5.19557 9.19574C6.1276 10.3439 7.11028 11.2388 8.19427 11.9243C8.33272 12.0121 8.47455 12.083 8.60962 12.1505C8.73119 12.2113 8.84601 12.2687 8.94394 12.3295C8.95745 12.3363 8.97095 12.3464 8.98446 12.3532C9.09928 12.4106 9.20734 12.4376 9.31878 12.4376C9.59906 12.4376 9.77466 12.262 9.83207 12.2046L10.987 11.0497C11.1018 10.9349 11.2841 10.7964 11.4969 10.7964C11.7063 10.7964 11.8785 10.9281 11.9832 11.0429C11.9865 11.0463 11.9865 11.0463 11.9899 11.0497L13.8506 12.9103C14.1984 13.2548 14.1984 13.6094 13.854 13.9673Z" fill="white"/>
<path d="M8.64676 4.30598C9.53152 4.45456 10.3352 4.8733 10.9768 5.51491C11.6184 6.15653 12.0338 6.96023 12.1858 7.84498C12.2229 8.06786 12.4154 8.22319 12.6349 8.22319C12.6619 8.22319 12.6855 8.21982 12.7126 8.21644C12.9625 8.17592 13.1279 7.93953 13.0874 7.68964C12.905 6.61916 12.3985 5.64324 11.6252 4.86992C10.8519 4.09661 9.87596 3.59008 8.80548 3.40772C8.55559 3.3672 8.32258 3.53267 8.27868 3.77918C8.23478 4.0257 8.39687 4.26546 8.64676 4.30598Z" fill="white"/>
<path d="M15.9814 7.55794C15.6809 5.7952 14.8502 4.19116 13.5737 2.91469C12.2972 1.63822 10.6932 0.807501 8.93043 0.506956C8.68392 0.463056 8.45091 0.631902 8.40701 0.878416C8.36649 1.12831 8.53196 1.36131 8.78185 1.40521C10.3555 1.67199 11.7907 2.41829 12.9321 3.55631C14.0735 4.6977 14.8164 6.13289 15.0832 7.70653C15.1203 7.9294 15.3128 8.08474 15.5323 8.08474C15.5593 8.08474 15.5829 8.08136 15.61 8.07799C15.8565 8.04084 16.0253 7.80446 15.9814 7.55794Z" fill="white"/>
</g>
<defs>
<clipPath id="clip0_1_658">
<rect width="16" height="16" fill="white" transform="translate(0 0.5)"/>
</clipPath>
</defs>
</svg>
