<svg viewBox="0 0 45.3203 34.4829" xmlns="http://www.w3.org/2000/svg" xmlns:xlink="http://www.w3.org/1999/xlink" width="45.320312" height="34.482910" fill="none">
	<rect id="testi-icon-1-top.svg" width="45.320324" height="34.482857" x="0.000000" y="0.000000" />
	<path id="Vector" d="M34.0498 33.7351C35.9414 33.7351 37.5966 33.3804 39.0153 32.6711C40.434 31.8829 41.5769 30.8582 42.4439 29.5972C43.2321 28.3361 43.8626 26.8385 44.3355 25.1045C44.8084 23.3705 45.0449 21.5577 45.0449 19.6661C45.0449 15.804 44.0597 12.1784 42.0892 8.78919C40.04 5.40002 36.8872 2.7202 32.6311 0.749756L31.567 2.87784C33.7739 3.90247 35.7444 5.40001 37.4784 7.37047C39.1335 9.2621 40.1188 11.272 40.434 13.4001C40.9069 15.0552 40.9464 16.671 40.5523 18.2474C38.8183 16.3557 36.4931 15.4099 33.5769 15.4099C30.8971 15.4099 28.6902 16.2375 26.9562 17.8927C25.2222 19.469 24.3552 21.676 24.3552 24.5134C24.3552 27.272 25.2616 29.5183 27.0744 31.2523C28.8872 32.9075 31.2123 33.7351 34.0498 33.7351ZM9.69504 33.7351C11.5867 33.7351 13.2418 33.3804 14.6606 32.6711C16.0793 31.8829 17.2222 30.8582 18.0892 29.5972C18.8773 28.3361 19.5079 26.8385 19.9808 25.1045C20.4537 23.3705 20.6901 21.5577 20.6901 19.6661C20.6901 15.804 19.7049 12.1784 17.7345 8.78919C15.6852 5.40002 12.5325 2.7202 8.27631 0.749756L7.21227 2.87784C9.41918 3.90247 11.3896 5.40001 13.1236 7.37047C14.7788 9.2621 15.764 11.272 16.0793 13.4001C16.5522 15.0552 16.5916 16.671 16.1975 18.2474C14.4635 16.3557 12.1384 15.4099 9.22213 15.4099C6.54232 15.4099 4.33542 16.2375 2.60142 17.8927C0.867424 19.469 0.000427246 21.676 0.000427246 24.5134C0.000427246 27.272 0.906834 29.5183 2.71965 31.2523C4.53246 32.9075 6.85759 33.7351 9.69504 33.7351Z" fill="rgb(49,78,82)" fill-rule="nonzero" />
</svg>
