<svg width="35px" height="35px" viewBox="0 0 35 35" fill="none" xmlns="http://www.w3.org/2000/svg" transform="rotate(0) scale(1, 1)">
<path d="M12.8304 9.89981C12.8775 9.91758 12.9261 9.92578 12.9739 9.92578C13.14 9.92578 13.2966 9.82393 13.3581 9.6585L13.8332 8.38428H15.3303L15.8054 9.6585C15.8847 9.87041 16.1205 9.97842 16.3331 9.89981C16.545 9.82051 16.653 9.58467 16.5744 9.37207L14.9666 5.05996C14.9065 4.89932 14.7533 4.79336 14.5824 4.79336C14.4108 4.79336 14.2577 4.9 14.1982 5.05996L12.5904 9.37207C12.5105 9.58467 12.6185 9.82051 12.8304 9.89981ZM14.5817 6.37725L15.024 7.56396H14.1388L14.5817 6.37725ZM8.5586 5.20352C8.5586 4.97725 8.74249 4.79336 8.96876 4.79336H12.2582C12.4845 4.79336 12.6684 4.97725 12.6684 5.20352C12.6684 5.42979 12.4845 5.61367 12.2582 5.61367H11.0236V9.51562C11.0236 9.74189 10.8398 9.92578 10.6135 9.92578C10.3872 9.92578 10.2033 9.74189 10.2033 9.51562V5.61367H8.96876C8.7418 5.61367 8.5586 5.42979 8.5586 5.20352ZM17.3503 9.31055L18.4769 7.35957L17.3503 5.40859C17.2368 5.2124 17.3045 4.96152 17.5007 4.84805C17.6969 4.73457 17.9478 4.80225 18.0612 4.99844L18.9506 6.53926L19.84 4.99844C19.9534 4.80225 20.2043 4.73525 20.4005 4.84805C20.5967 4.96152 20.6637 5.2124 20.5509 5.40859L19.4243 7.35957L20.5509 9.31055C20.6644 9.50674 20.5967 9.75762 20.4005 9.87109C20.3362 9.90869 20.2651 9.92578 20.1961 9.92578C20.0546 9.92578 19.9165 9.85195 19.8406 9.7207L18.9513 8.17988L18.0606 9.7207C17.9847 9.85195 17.8466 9.92578 17.7051 9.92578C17.6354 9.92578 17.5649 9.90801 17.5007 9.87109C17.3045 9.75762 17.2368 9.50674 17.3503 9.31055ZM32.4659 15.2188H29.7015V7.27207H29.7008C29.7008 7.16543 29.6598 7.06016 29.5818 6.98223L23.7453 1.1457C23.6667 1.06709 23.5621 1.02676 23.4555 1.02676V1.02539H5.7087C5.48243 1.02539 5.29854 1.20928 5.29854 1.43555V11.5821L4.78311 10.6894C4.22803 9.72754 2.99346 9.39668 2.03096 9.95176C1.06915 10.5075 0.738289 11.7421 1.29337 12.7039L5.29786 19.6403V30.3803C5.29786 30.6065 5.48175 30.7904 5.70802 30.7904H18.6724V32.4652C18.6724 33.2972 19.3491 33.9739 20.1811 33.9739H32.4646C33.2965 33.9739 33.9733 33.2972 33.9733 32.4652V16.7282C33.9746 15.8963 33.2979 15.2188 32.4659 15.2188ZM23.8649 2.42607L28.3008 6.86191H23.8649V2.42607ZM6.11886 1.8457H23.044V7.27207C23.044 7.49834 23.2278 7.68223 23.4541 7.68223H28.8805V15.2195H20.1824C19.561 15.2195 19.0265 15.5969 18.7954 16.1349H8.96876C8.74249 16.1349 8.5586 16.3188 8.5586 16.545C8.5586 16.7713 8.74249 16.9552 8.96876 16.9552H18.6737V19.5385H9.89229L6.11954 13.004V1.8457H6.11886ZM8.76983 24.0112L4.30802 16.2839L6.37657 15.0896L10.8384 22.8177L8.76983 24.0112ZM5.96641 14.3787L3.89786 15.5729L3.32706 14.5845L5.39561 13.3902L5.96641 14.3787ZM18.6737 22.9414H11.8077L11.807 22.9312C11.8016 22.8703 11.7824 22.8136 11.753 22.7623L11.7537 22.7616L10.366 20.3574H18.6737V22.9414ZM11.0462 23.6441L11.2465 25.913L9.38165 24.6053L11.0462 23.6441ZM12.1078 26.345L11.8802 23.7617H18.6737V26.345H12.1078ZM2.4418 10.6627C3.01192 10.3339 3.74405 10.5294 4.07354 11.1002L4.98614 12.6807L2.91759 13.8749L2.00499 12.2944C1.6755 11.7236 1.871 10.9922 2.4418 10.6627ZM6.11886 29.9708V21.0615L8.26397 24.7769L8.26466 24.7762C8.29405 24.8274 8.3337 24.8726 8.3836 24.9074L10.433 26.3443H8.96876C8.74249 26.3443 8.5586 26.5282 8.5586 26.7545C8.5586 26.9808 8.74249 27.1646 8.96876 27.1646H18.6737V29.9701H6.11886V29.9708ZM33.1543 32.4659C33.1543 32.8453 32.8453 33.1543 32.4659 33.1543H20.1824C19.803 33.1543 19.4941 32.8453 19.4941 32.4659V16.7282C19.4941 16.3488 19.803 16.0398 20.1824 16.0398H32.4659C32.8453 16.0398 33.1543 16.3488 33.1543 16.7282V32.4659ZM31.7317 17.0516H20.9166C20.6903 17.0516 20.5065 17.2354 20.5065 17.4617V20.2583C20.5065 20.4846 20.6903 20.6685 20.9166 20.6685H31.7324C31.9587 20.6685 32.1426 20.4846 32.1426 20.2583V17.4617C32.1419 17.2354 31.958 17.0516 31.7317 17.0516ZM31.3216 19.8481H21.3268V17.8719H31.3223V19.8481H31.3216ZM23.3721 22.0562H20.9166C20.6903 22.0562 20.5065 22.24 20.5065 22.4663V24.3004C20.5065 24.5267 20.6903 24.7105 20.9166 24.7105H23.3721C23.5983 24.7105 23.7822 24.5267 23.7822 24.3004V22.4663C23.7822 22.24 23.5983 22.0562 23.3721 22.0562ZM22.9619 23.8902H21.3268V22.8765H22.9619V23.8902ZM23.3721 25.5842H20.9166C20.6903 25.5842 20.5065 25.7681 20.5065 25.9943V27.8284C20.5065 28.0547 20.6903 28.2386 20.9166 28.2386H23.3721C23.5983 28.2386 23.7822 28.0547 23.7822 27.8284V25.9943C23.7822 25.7681 23.5983 25.5842 23.3721 25.5842ZM22.9619 27.4183H21.3268V26.4045H22.9619V27.4183ZM23.3721 29.1122H20.9166C20.6903 29.1122 20.5065 29.2961 20.5065 29.5224V31.3564C20.5065 31.5827 20.6903 31.7666 20.9166 31.7666H23.3721C23.5983 31.7666 23.7822 31.5827 23.7822 31.3564V29.5224C23.7822 29.2954 23.5983 29.1122 23.3721 29.1122ZM22.9619 30.9463H21.3268V29.9325H22.9619V30.9463ZM27.5516 22.0562H25.0961C24.8698 22.0562 24.6859 22.24 24.6859 22.4663V24.3004C24.6859 24.5267 24.8698 24.7105 25.0961 24.7105H27.5516C27.7778 24.7105 27.9617 24.5267 27.9617 24.3004V22.4663C27.9617 22.24 27.7785 22.0562 27.5516 22.0562ZM27.1414 23.8902H25.5063V22.8765H27.1414V23.8902ZM27.5516 25.5842H25.0961C24.8698 25.5842 24.6859 25.7681 24.6859 25.9943V27.8284C24.6859 28.0547 24.8698 28.2386 25.0961 28.2386H27.5516C27.7778 28.2386 27.9617 28.0547 27.9617 27.8284V25.9943C27.9617 25.7681 27.7785 25.5842 27.5516 25.5842ZM27.1414 27.4183H25.5063V26.4045H27.1414V27.4183ZM27.5516 29.1122H25.0961C24.8698 29.1122 24.6859 29.2961 24.6859 29.5224V31.3564C24.6859 31.5827 24.8698 31.7666 25.0961 31.7666H27.5516C27.7778 31.7666 27.9617 31.5827 27.9617 31.3564V29.5224C27.9617 29.2954 27.7785 29.1122 27.5516 29.1122ZM27.1414 30.9463H25.5063V29.9325H27.1414V30.9463ZM31.7317 22.0562H29.2763C29.05 22.0562 28.8661 22.24 28.8661 22.4663V24.3004C28.8661 24.5267 29.05 24.7105 29.2763 24.7105H31.7317C31.958 24.7105 32.1419 24.5267 32.1419 24.3004V22.4663C32.1419 22.24 31.958 22.0562 31.7317 22.0562ZM31.3216 23.8902H29.6864V22.8765H31.3216V23.8902ZM31.7317 25.5842H29.2763C29.05 25.5842 28.8661 25.7681 28.8661 25.9943V27.8284C28.8661 28.0547 29.05 28.2386 29.2763 28.2386H31.7317C31.958 28.2386 32.1419 28.0547 32.1419 27.8284V25.9943C32.1419 25.7681 31.958 25.5842 31.7317 25.5842ZM31.3216 27.4183H29.6864V26.4045H31.3216V27.4183ZM31.7317 29.1122H29.2763C29.05 29.1122 28.8661 29.2961 28.8661 29.5224V31.3564C28.8661 31.5827 29.05 31.7666 29.2763 31.7666H31.7317C31.958 31.7666 32.1419 31.5827 32.1419 31.3564V29.5224C32.1419 29.2954 31.958 29.1122 31.7317 29.1122ZM31.3216 30.9463H29.6864V29.9325H31.3216V30.9463ZM8.5586 13.1414C8.5586 12.9151 8.74249 12.7313 8.96876 12.7313H26.0313C26.2575 12.7313 26.4414 12.9151 26.4414 13.1414C26.4414 13.3677 26.2575 13.5516 26.0313 13.5516H8.96876C8.7418 13.5516 8.5586 13.3677 8.5586 13.1414Z" fill="#ffffff"/>
</svg>