<svg width="33px" height="33px" viewBox="0 0 33 33" fill="none" xmlns="http://www.w3.org/2000/svg" transform="rotate(0) scale(1, 1)">
<g clip-path="url(#clip0_1_949)">
<path d="M28.6 0.012207H4.4C3.23349 0.0136624 2.11518 0.4777 1.29034 1.30254C0.465493 2.12739 0.00145541 3.2457 0 4.41221L0 15.4122C0 15.8498 0.173839 16.2695 0.483274 16.5789C0.792709 16.8884 1.21239 17.0622 1.65 17.0622H7.7V30.568C7.69928 30.7651 7.75218 30.9587 7.85304 31.1281C7.95389 31.2974 8.0989 31.4361 8.27255 31.5294L10.752 32.8846C10.9134 32.9714 11.0939 33.0168 11.2772 33.0168C11.4605 33.0168 11.641 32.9714 11.8025 32.8846L14.295 31.5206L16.7964 32.8868C16.9579 32.9736 17.1384 33.019 17.3217 33.019C17.505 33.019 17.6855 32.9736 17.847 32.8868L20.3445 31.5228L22.8465 32.889C23.0079 32.9758 23.1884 33.0212 23.3717 33.0212C23.555 33.0212 23.7355 32.9758 23.897 32.889L26.3951 31.525L28.8948 32.8874C29.0561 32.9752 29.2369 33.0212 29.4206 33.0212C29.6043 33.0212 29.7851 32.9752 29.9464 32.8874L32.4214 31.5371C32.5977 31.443 32.7448 31.3025 32.8468 31.1306C32.9488 30.9588 33.0018 30.7623 33 30.5625V4.41276C32.9987 3.24616 32.5347 2.1277 31.7099 1.30274C30.885 0.477776 29.7666 0.0136627 28.6 0.012207ZM1.65 15.9622C1.50413 15.9622 1.36424 15.9043 1.26109 15.8011C1.15795 15.698 1.1 15.5581 1.1 15.4122V4.41221C1.10102 3.53731 1.44902 2.69853 2.06767 2.07988C2.68632 1.46123 3.5251 1.11323 4.4 1.11221C5.29597 1.13484 6.14642 1.51174 6.76499 2.16031C7.38356 2.80888 7.71979 3.67622 7.7 4.57226V15.9639L1.65 15.9622ZM31.9 30.5636L29.425 31.9166L26.917 30.5504C26.7555 30.4638 26.575 30.4184 26.3918 30.4184C26.2085 30.4184 26.028 30.4638 25.8665 30.5504L23.3689 31.9144L20.867 30.5504C20.7055 30.4638 20.525 30.4184 20.3418 30.4184C20.1585 30.4184 19.978 30.4638 19.8165 30.5504L17.319 31.9144L14.8247 30.5521C14.6634 30.4638 14.4825 30.4176 14.2986 30.4176C14.1148 30.4176 13.9339 30.4638 13.7726 30.5521L11.275 31.9166L8.8 30.568V4.57226C8.80253 3.91974 8.66691 3.27408 8.40206 2.67772C8.1372 2.08137 7.74911 1.54784 7.2633 1.11221H28.6C29.4749 1.11323 30.3137 1.46123 30.9323 2.07988C31.551 2.69853 31.899 3.53731 31.9 4.41221V30.5636Z" fill="#ffffff"/>
<path d="M23.65 4.41274H24.75V9.36274C24.75 9.50861 24.8079 9.64851 24.9111 9.75165C25.0142 9.8548 25.1541 9.91274 25.3 9.91274C25.4458 9.91274 25.5857 9.8548 25.6889 9.75165C25.792 9.64851 25.85 9.50861 25.85 9.36274V4.41274H26.95C27.0958 4.41274 27.2357 4.3548 27.3389 4.25165C27.442 4.14851 27.5 4.00861 27.5 3.86274C27.5 3.71688 27.442 3.57698 27.3389 3.47384C27.2357 3.37069 27.0958 3.31274 26.95 3.31274H23.65C23.5041 3.31274 23.3642 3.37069 23.2611 3.47384C23.1579 3.57698 23.1 3.71688 23.1 3.86274C23.1 4.00861 23.1579 4.14851 23.2611 4.25165C23.3642 4.3548 23.5041 4.41274 23.65 4.41274Z" fill="#ffffff"/>
<path d="M18.15 9.91323C18.2958 9.91323 18.4357 9.85529 18.5389 9.75214C18.642 9.649 18.7 9.5091 18.7 9.36323V7.71323H20.9V9.36323C20.9 9.5091 20.9579 9.649 21.0611 9.75214C21.1642 9.85529 21.3041 9.91323 21.45 9.91323C21.5958 9.91323 21.7357 9.85529 21.8389 9.75214C21.942 9.649 22 9.5091 22 9.36323V5.51323C22 4.92976 21.7682 4.37018 21.3556 3.9576C20.943 3.54502 20.3835 3.31323 19.8 3.31323C19.2165 3.31323 18.6569 3.54502 18.2443 3.9576C17.8318 4.37018 17.6 4.92976 17.6 5.51323V9.36323C17.6 9.5091 17.6579 9.649 17.7611 9.75214C17.8642 9.85529 18.0041 9.91323 18.15 9.91323ZM19.8 4.41323C20.0917 4.41323 20.3715 4.52912 20.5778 4.73541C20.7841 4.9417 20.9 5.22149 20.9 5.51323V6.61323H18.7V5.51323C18.6999 5.36873 18.7283 5.22563 18.7836 5.09211C18.8388 4.95859 18.9198 4.83726 19.022 4.73506C19.1241 4.63286 19.2454 4.55178 19.3789 4.49647C19.5124 4.44115 19.6555 4.41268 19.8 4.41268V4.41323Z" fill="#ffffff"/>
<path d="M13.7731 9.52094C13.807 9.63431 13.8766 9.73371 13.9716 9.80438C14.0665 9.87504 14.1817 9.91321 14.3 9.91321C14.4184 9.91321 14.5335 9.87504 14.6285 9.80438C14.7234 9.73371 14.793 9.63431 14.8269 9.52094L16.4769 4.02094C16.5188 3.88119 16.5034 3.73054 16.4342 3.60213C16.365 3.47371 16.2476 3.37805 16.1079 3.33619C15.9681 3.29432 15.8175 3.30968 15.6891 3.3789C15.5606 3.44811 15.465 3.56549 15.4231 3.70524L14.3 7.44854L13.1769 3.70469C13.1562 3.63549 13.122 3.57106 13.0764 3.51507C13.0308 3.45907 12.9746 3.41261 12.911 3.37835C12.8474 3.34408 12.7777 3.32267 12.7058 3.31534C12.634 3.30801 12.5614 3.31491 12.4922 3.33564C12.423 3.35637 12.3585 3.39052 12.3025 3.43615C12.2465 3.48178 12.2001 3.53799 12.1658 3.60158C12.1316 3.66516 12.1101 3.73488 12.1028 3.80674C12.0955 3.87859 12.1024 3.95119 12.1231 4.02039L13.7731 9.52094Z" fill="#ffffff"/>
<path d="M28.9888 21.6254C28.8857 21.5223 28.7458 21.4644 28.6 21.4644C28.4541 21.4644 28.3143 21.5223 28.2111 21.6254L22.7111 27.1254C22.6586 27.1761 22.6167 27.2368 22.5879 27.3039C22.559 27.371 22.5439 27.4432 22.5432 27.5162C22.5426 27.5892 22.5565 27.6617 22.5842 27.7293C22.6118 27.7969 22.6527 27.8583 22.7043 27.9099C22.7559 27.9615 22.8174 28.0024 22.8849 28.03C22.9525 28.0577 23.025 28.0716 23.098 28.071C23.171 28.0703 23.2432 28.0552 23.3103 28.0263C23.3774 27.9975 23.4381 27.9556 23.4888 27.9031L28.9888 22.4031C29.0919 22.2999 29.1499 22.1601 29.1499 22.0142C29.1499 21.8684 29.0919 21.7285 28.9888 21.6254Z" fill="#ffffff"/>
<path d="M25.3 22.5643C25.3 22.238 25.2032 21.919 25.0219 21.6476C24.8406 21.3763 24.5829 21.1648 24.2814 21.0399C23.9799 20.915 23.6482 20.8823 23.3281 20.946C23.008 21.0097 22.714 21.1668 22.4833 21.3976C22.2525 21.6283 22.0954 21.9223 22.0317 22.2424C21.968 22.5625 22.0007 22.8942 22.1256 23.1957C22.2505 23.4972 22.462 23.7549 22.7333 23.9362C23.0047 24.1175 23.3237 24.2143 23.65 24.2143C24.0876 24.2143 24.5073 24.0405 24.8167 23.731C25.1262 23.4216 25.3 23.0019 25.3 22.5643ZM23.1 22.5643C23.1 22.4555 23.1323 22.3492 23.1927 22.2587C23.2531 22.1683 23.339 22.0978 23.4395 22.0562C23.54 22.0145 23.6506 22.0037 23.7573 22.0249C23.864 22.0461 23.962 22.0985 24.0389 22.1754C24.1158 22.2523 24.1682 22.3503 24.1894 22.457C24.2107 22.5637 24.1998 22.6743 24.1581 22.7748C24.1165 22.8753 24.046 22.9612 23.9556 23.0216C23.8651 23.0821 23.7588 23.1143 23.65 23.1143C23.5041 23.1143 23.3642 23.0564 23.2611 22.9532C23.1579 22.8501 23.1 22.7102 23.1 22.5643Z" fill="#ffffff"/>
<path d="M28.05 25.3149C27.7237 25.3149 27.4047 25.4117 27.1333 25.593C26.862 25.7743 26.6505 26.032 26.5256 26.3335C26.4007 26.635 26.3681 26.9668 26.4317 27.2868C26.4954 27.6069 26.6525 27.9009 26.8833 28.1317C27.1141 28.3624 27.4081 28.5196 27.7281 28.5832C28.0482 28.6469 28.38 28.6142 28.6815 28.4893C28.983 28.3645 29.2406 28.153 29.4219 27.8816C29.6033 27.6103 29.7 27.2913 29.7 26.9649C29.7 26.5273 29.5262 26.1076 29.2168 25.7982C28.9073 25.4888 28.4876 25.3149 28.05 25.3149ZM28.05 27.5149C27.9412 27.5149 27.8349 27.4827 27.7445 27.4223C27.654 27.3618 27.5835 27.2759 27.5419 27.1754C27.5003 27.0749 27.4894 26.9643 27.5106 26.8576C27.5318 26.751 27.5842 26.653 27.6611 26.576C27.738 26.4991 27.836 26.4467 27.9427 26.4255C28.0494 26.4043 28.16 26.4152 28.2605 26.4568C28.361 26.4984 28.4469 26.5689 28.5073 26.6594C28.5678 26.7498 28.6 26.8562 28.6 26.9649C28.6 27.1108 28.5421 27.2507 28.4389 27.3539C28.3358 27.457 28.1959 27.5149 28.05 27.5149Z" fill="#ffffff"/>
<path d="M29.7 18.1643H11C10.8541 18.1643 10.7142 18.2223 10.6111 18.3254C10.508 18.4285 10.45 18.5684 10.45 18.7143C10.45 18.8602 10.508 19.0001 10.6111 19.1032C10.7142 19.2064 10.8541 19.2643 11 19.2643H29.7C29.8459 19.2643 29.9858 19.2064 30.0889 19.1032C30.1921 19.0001 30.25 18.8602 30.25 18.7143C30.25 18.5684 30.1921 18.4285 30.0889 18.3254C29.9858 18.2223 29.8459 18.1643 29.7 18.1643Z" fill="#ffffff"/>
<path d="M20.35 21.4644H11C10.8541 21.4644 10.7142 21.5223 10.6111 21.6254C10.508 21.7286 10.45 21.8685 10.45 22.0144C10.45 22.1602 10.508 22.3001 10.6111 22.4033C10.7142 22.5064 10.8541 22.5644 11 22.5644H20.35C20.4959 22.5644 20.6358 22.5064 20.7389 22.4033C20.8421 22.3001 20.9 22.1602 20.9 22.0144C20.9 21.8685 20.8421 21.7286 20.7389 21.6254C20.6358 21.5223 20.4959 21.4644 20.35 21.4644Z" fill="#ffffff"/>
<path d="M17.6 24.7649H11C10.8541 24.7649 10.7142 24.8228 10.6111 24.926C10.508 25.0291 10.45 25.169 10.45 25.3149C10.45 25.4608 10.508 25.6007 10.6111 25.7038C10.7142 25.8069 10.8541 25.8649 11 25.8649H17.6C17.7459 25.8649 17.8858 25.8069 17.9889 25.7038C18.0921 25.6007 18.15 25.4608 18.15 25.3149C18.15 25.169 18.0921 25.0291 17.9889 24.926C17.8858 24.8228 17.7459 24.7649 17.6 24.7649Z" fill="#ffffff"/>
<path d="M29.7 14.8638H11C10.8541 14.8638 10.7142 14.9217 10.6111 15.0249C10.508 15.128 10.45 15.2679 10.45 15.4138C10.45 15.5596 10.508 15.6995 10.6111 15.8027C10.7142 15.9058 10.8541 15.9638 11 15.9638H29.7C29.8459 15.9638 29.9858 15.9058 30.0889 15.8027C30.1921 15.6995 30.25 15.5596 30.25 15.4138C30.25 15.2679 30.1921 15.128 30.0889 15.0249C29.9858 14.9217 29.8459 14.8638 29.7 14.8638Z" fill="#ffffff"/>
<path d="M29.7 11.5632H11C10.8541 11.5632 10.7142 11.6212 10.6111 11.7243C10.508 11.8275 10.45 11.9674 10.45 12.1132C10.45 12.2591 10.508 12.399 10.6111 12.5021C10.7142 12.6053 10.8541 12.6632 11 12.6632H29.7C29.8459 12.6632 29.9858 12.6053 30.0889 12.5021C30.1921 12.399 30.25 12.2591 30.25 12.1132C30.25 11.9674 30.1921 11.8275 30.0889 11.7243C29.9858 11.6212 29.8459 11.5632 29.7 11.5632Z" fill="#ffffff"/>
</g>
<defs>
<clipPath id="clip0_1_949">
<rect width="33" height="33" fill="#ffffff"/>
</clipPath>
</defs>
</svg>