<svg width="20" height="21" viewBox="0 0 20 21" fill="none" xmlns="http://www.w3.org/2000/svg">
<g clip-path="url(#clip0_1_1042)">
<path d="M7.91813 13.5721C7.97578 13.508 8.00343 13.4225 7.99424 13.3367C7.83333 11.8327 6.81302 10.617 5.45074 10.1536C5.96001 9.7765 6.29091 9.1716 6.29091 8.4907C6.29091 7.35032 5.36312 6.42256 4.22273 6.42256C3.08239 6.42256 2.1546 7.35032 2.1546 8.4907C2.1546 9.1716 2.48546 9.7765 2.99473 10.1536C1.63241 10.617 0.612144 11.8327 0.451196 13.3368C0.442006 13.4225 0.469653 13.5081 0.527303 13.5722C0.584953 13.6363 0.667098 13.6729 0.753269 13.6729L7.69213 13.6729C7.77833 13.6728 7.86052 13.6362 7.91813 13.5721ZM2.76224 8.49066C2.76224 7.68535 3.41742 7.03017 4.22273 7.03017C5.02808 7.03017 5.68327 7.68535 5.68327 8.49066C5.68327 9.29598 5.02808 9.95116 4.22273 9.95116C3.41742 9.95116 2.76224 9.29598 2.76224 8.49066ZM1.10938 13.0652C1.42194 11.6148 2.70542 10.5588 4.22273 10.5588C5.74001 10.5588 7.02349 11.6148 7.33609 13.0652L1.10938 13.0652ZM14.6151 7.68231C13.3108 7.68231 12.2496 8.74344 12.2496 10.0477C12.2496 11.352 13.3108 12.4131 14.6151 12.4131C15.9194 12.4131 16.9805 11.352 16.9805 10.0477C16.9805 8.74344 15.9194 7.68231 14.6151 7.68231ZM14.6151 11.8055C13.6458 11.8055 12.8573 11.017 12.8573 10.0477C12.8573 9.07852 13.6458 8.28995 14.6151 8.28995C15.5843 8.28995 16.3728 9.07848 16.3728 10.0477C16.3728 11.0169 15.5843 11.8055 14.6151 11.8055ZM19.0916 9.17312L18.5137 8.95068C18.4272 8.64254 18.3044 8.34643 18.1474 8.06703L18.3989 7.50074C18.4499 7.38586 18.425 7.25146 18.3361 7.16259L17.5002 6.32671C17.4113 6.23784 17.2769 6.21285 17.1621 6.26386L16.5955 6.51546C16.3162 6.3585 16.0202 6.23575 15.7122 6.14924L15.4897 5.57119C15.4446 5.45388 15.3319 5.37652 15.2061 5.37652H14.024C13.8983 5.37652 13.7856 5.45391 13.7405 5.57119L13.518 6.14924C13.2101 6.23575 12.914 6.35846 12.6346 6.51546L12.0681 6.26386C11.9532 6.21285 11.8188 6.23781 11.73 6.32671L10.894 7.16259C10.8052 7.25146 10.7802 7.38586 10.8312 7.50074L11.0828 8.06718C10.9258 8.34658 10.8031 8.64257 10.7165 8.95065L10.1385 9.17312C10.0212 9.21824 9.94384 9.33095 9.94384 9.45666V10.6388C9.94384 10.7645 10.0212 10.8772 10.1385 10.9223L10.7164 11.1448C10.803 11.4529 10.9257 11.749 11.0828 12.0284L10.8312 12.5947C10.7802 12.7096 10.8052 12.844 10.8941 12.9328L11.73 13.7687C11.8188 13.8576 11.9532 13.8826 12.0681 13.8316L12.6346 13.58C12.9141 13.737 13.21 13.8597 13.518 13.9462L13.7405 14.5243C13.7856 14.6416 13.8983 14.719 14.024 14.719H15.2061C15.3319 14.719 15.4445 14.6416 15.4897 14.5243L15.7121 13.9464C16.0202 13.8599 16.3164 13.7371 16.5958 13.5801L17.1621 13.8316C17.2769 13.8827 17.4113 13.8577 17.5002 13.7688L18.3361 12.9329C18.425 12.8441 18.4499 12.7097 18.3989 12.5948L18.1473 12.0283C18.3043 11.7488 18.427 11.4529 18.5136 11.1449L19.0917 10.9224C19.2089 10.8773 19.2863 10.7646 19.2863 10.6389V9.45673C19.2863 9.33095 19.2089 9.21824 19.0916 9.17312ZM18.6787 10.4302L18.1496 10.6338C18.0561 10.6698 17.9863 10.7496 17.9632 10.847C17.8788 11.2012 17.7391 11.5385 17.5475 11.8495C17.495 11.9348 17.4879 12.0405 17.5286 12.1321L17.7589 12.6507L17.218 13.1915L16.6997 12.9613C16.6082 12.9207 16.5024 12.9278 16.4171 12.9803C16.1061 13.1718 15.7688 13.3117 15.4143 13.396C15.3169 13.4192 15.2371 13.4889 15.2012 13.5824L14.9976 14.1114H14.2326L14.029 13.5823C13.993 13.4888 13.9132 13.4191 13.8158 13.3959C13.4616 13.3116 13.1243 13.1718 12.8133 12.9803C12.728 12.9278 12.6222 12.9207 12.5308 12.9613L12.0122 13.1916L11.4713 12.6508L11.7015 12.1324C11.7422 12.0408 11.7351 11.9351 11.6825 11.8498C11.4911 11.5389 11.3512 11.2016 11.2669 10.8471C11.2437 10.7496 11.1739 10.6698 11.0805 10.6338L10.5515 10.4302V9.66523L11.0805 9.4616C11.174 9.42563 11.2437 9.34584 11.2669 9.24839C11.3512 8.8941 11.491 8.55682 11.6825 8.2459C11.7351 8.16056 11.7422 8.05484 11.7015 7.96323L11.4712 7.44473L12.0121 6.90385L12.5307 7.13415C12.6222 7.17475 12.728 7.16772 12.8133 7.11516C13.1242 6.92368 13.4615 6.78384 13.8158 6.69957C13.9132 6.67637 13.993 6.60664 14.0289 6.51314L14.2326 5.98408H14.9975L15.2011 6.51314C15.2371 6.60664 15.3169 6.67637 15.4143 6.69957C15.7685 6.78388 16.1058 6.92372 16.4167 7.11516C16.5021 7.16772 16.6078 7.17475 16.6993 7.13415L17.2179 6.90382L17.7588 7.44469L17.5285 7.96301C17.4879 8.05461 17.495 8.16034 17.5475 8.24567C17.739 8.55659 17.8789 8.89395 17.9632 9.24839C17.9864 9.34584 18.0561 9.42563 18.1496 9.4616L18.6787 9.66523V10.4302ZM10.3289 6.32686H7.39036L7.42868 6.35679C7.56091 6.46005 7.58442 6.651 7.48116 6.78324C7.42123 6.85995 7.3318 6.90006 7.24145 6.90009C7.17605 6.90009 7.1102 6.87909 7.05467 6.83572L6.32065 6.26253C6.24693 6.20495 6.20383 6.11662 6.20383 6.02308C6.20383 5.92954 6.24693 5.84121 6.32065 5.78363L7.05467 5.2104C7.18684 5.10714 7.37786 5.13061 7.48112 5.26285C7.58442 5.39509 7.56095 5.58604 7.42868 5.6893L7.39032 5.71926H10.3289C10.4967 5.71926 10.6327 5.8553 10.6327 6.02308C10.6327 6.19086 10.4967 6.32686 10.3289 6.32686ZM5.44424 3.92954C5.44424 3.76175 5.58028 3.62572 5.74806 3.62572H10.2058L10.1675 3.59579C10.0353 3.49253 10.0117 3.30158 10.115 3.16934C10.2183 3.03711 10.4093 3.01356 10.5415 3.1169L11.2755 3.69009C11.3492 3.74766 11.3923 3.836 11.3923 3.92954C11.3923 4.02308 11.3492 4.11141 11.2755 4.16898L10.5415 4.74222C10.486 4.78559 10.4201 4.80659 10.3547 4.80659C10.2644 4.80659 10.175 4.76648 10.115 4.68973C10.0117 4.55749 10.0352 4.36658 10.1675 4.26328L10.2059 4.23332H5.74806C5.58028 4.23336 5.44424 4.09732 5.44424 3.92954ZM9.40787 15.2651L9.44623 15.2351H6.50765C6.33986 15.2351 6.20383 15.0991 6.20383 14.9313C6.20383 14.7635 6.33986 14.6275 6.50765 14.6275H9.44619L9.40787 14.5975C9.27563 14.4943 9.25212 14.3033 9.35538 14.1711C9.45868 14.0389 9.64963 14.0153 9.78183 14.1187L10.5159 14.6918C10.5896 14.7494 10.6327 14.8378 10.6327 14.9313C10.6327 15.0248 10.5896 15.1132 10.5159 15.1707L9.78183 15.744C9.72631 15.7873 9.66046 15.8083 9.59506 15.8083C9.50471 15.8083 9.41531 15.7682 9.35538 15.6915C9.25212 15.5593 9.27559 15.3684 9.40787 15.2651ZM11.3923 17.0248C11.3923 17.1926 11.2563 17.3287 11.0885 17.3287H6.63069L6.66901 17.3586C6.80125 17.4618 6.82476 17.6528 6.72146 17.785C6.66157 17.8617 6.57213 17.9019 6.48178 17.9019C6.41639 17.9019 6.35053 17.8809 6.29501 17.8375L5.56102 17.2643C5.48731 17.2068 5.4442 17.1184 5.4442 17.0249C5.4442 16.9313 5.48731 16.843 5.56102 16.7854L6.29501 16.2122C6.42717 16.1089 6.6182 16.1324 6.72146 16.2647C6.82476 16.3969 6.80129 16.5879 6.66901 16.6911L6.63069 16.7211H11.0885C11.2563 16.721 11.3923 16.8571 11.3923 17.0248Z" fill="white"/>
</g>
<defs>
<clipPath id="clip0_1_1042">
<rect width="19.4444" height="19.4444" fill="white" transform="translate(0.147034 0.755127)"/>
</clipPath>
</defs>
</svg>
