<svg width="18" height="18" viewBox="0 0 18 18" fill="none" xmlns="http://www.w3.org/2000/svg">
<g clip-path="url(#clip0_1_1037)">
<path d="M7.2496 13.5396C6.80875 13.1409 6.29103 12.8485 5.7335 12.6765C6.32487 12.2875 6.71633 11.6183 6.71633 10.859C6.71633 9.65999 5.74087 8.68453 4.54183 8.68453C3.3428 8.68453 2.36737 9.65999 2.36737 10.859C2.36737 11.6182 2.75879 12.2875 3.3502 12.6765C2.79264 12.8485 2.27492 13.1409 1.83407 13.5396C1.09625 14.2068 0.631912 15.1167 0.526491 16.1017C0.518382 16.1773 0.54281 16.2528 0.593644 16.3094C0.644478 16.366 0.716959 16.3983 0.793026 16.3983H8.29057C8.36664 16.3983 8.43912 16.366 8.48996 16.3094C8.54079 16.2528 8.56522 16.1773 8.55711 16.1017C8.45176 15.1167 7.98738 14.2068 7.2496 13.5396ZM2.90355 10.859C2.90355 9.95568 3.63852 9.22071 4.54187 9.22071C5.44525 9.22071 6.18021 9.95568 6.18021 10.859C6.18021 11.7622 5.44548 12.4971 4.54234 12.4973C4.5422 12.4973 4.54203 12.4973 4.5419 12.4973C4.54177 12.4973 4.5416 12.4973 4.54147 12.4973C3.63825 12.4971 2.90355 11.7622 2.90355 10.859ZM1.10406 15.8621C1.41972 14.23 2.84813 13.0337 4.5415 13.0335H4.54183C4.54183 13.0335 4.54207 13.0335 4.54217 13.0335C6.23554 13.0337 7.66391 14.23 7.97961 15.8621H1.10406ZM15.7348 13.5396C15.294 13.1409 14.7762 12.8485 14.2187 12.6765C14.81 12.2875 15.2015 11.6183 15.2015 10.859C15.2015 9.66002 14.226 8.68456 13.027 8.68456C11.828 8.68456 10.8525 9.66002 10.8525 10.859C10.8525 11.6183 11.244 12.2875 11.8354 12.6766C11.2778 12.8486 10.7601 13.141 10.3193 13.5397C9.58146 14.2069 9.11712 15.1167 9.0117 16.1017C9.00359 16.1773 9.02802 16.2528 9.07885 16.3094C9.12969 16.3659 9.20217 16.3983 9.27823 16.3983H16.7758C16.8518 16.3983 16.9243 16.366 16.9752 16.3094C17.026 16.2528 17.0504 16.1773 17.0423 16.1017C16.937 15.1167 16.4726 14.2068 15.7348 13.5396ZM11.3887 10.859C11.3887 9.95568 12.1236 9.22071 13.027 9.22071C13.9304 9.22071 14.6653 9.95568 14.6653 10.859C14.6653 11.7622 13.9306 12.4971 13.0274 12.4973C13.0273 12.4973 13.0271 12.4973 13.027 12.4973C13.0269 12.4973 13.0267 12.4973 13.0266 12.4973C12.1234 12.4971 11.3887 11.7622 11.3887 10.859ZM9.58924 15.8621C9.90489 14.23 11.3333 13.0336 13.0266 13.0335H13.027H13.0273C14.7207 13.0336 16.1491 14.23 16.4648 15.8621H9.58924ZM16.1759 1.07935H9.17868C8.64393 1.07935 8.20891 1.5144 8.20891 2.04911V3.68863C8.17269 3.71765 8.1434 3.75562 8.12594 3.80092L7.98262 4.17324C7.78488 4.23101 7.59431 4.31003 7.41336 4.40925L7.36085 4.38593V2.26143C7.36085 1.72524 6.92463 1.28901 6.38844 1.28901H1.54897C1.01281 1.28901 0.576588 1.72524 0.576588 2.26143V5.69833C0.576588 6.23451 1.01281 6.67074 1.54897 6.67074H1.91781L3.09945 7.8673C3.15082 7.91934 3.21992 7.94702 3.29025 7.94702C3.3245 7.94702 3.35905 7.94045 3.39199 7.92691C3.49258 7.88563 3.55826 7.78765 3.55826 7.67894V6.67074H5.49917V7.32277C5.49917 7.43368 5.56746 7.53311 5.67094 7.57295L6.04309 7.7162C6.10086 7.91411 6.17991 8.10475 6.27917 8.2857L6.11722 8.65038C6.07218 8.75175 6.09423 8.87034 6.17264 8.94875L6.75011 9.52622C6.82849 9.60463 6.94708 9.62668 7.04848 9.58168L7.41336 9.41962C7.59428 9.51885 7.78485 9.59789 7.98262 9.65563L8.12591 10.0279C8.16572 10.1314 8.26517 10.1997 8.37609 10.1997H9.19275C9.30367 10.1997 9.40309 10.1314 9.44293 10.0279L9.58619 9.65577C9.78409 9.598 9.97473 9.51895 10.1557 9.41969L10.5204 9.58164C10.6218 9.62665 10.7403 9.60463 10.8187 9.52622L11.3962 8.94875C11.4746 8.87034 11.4967 8.75175 11.4517 8.65038L11.2896 8.2855C11.3889 8.10454 11.4679 7.91398 11.5256 7.71624L11.8979 7.57292C12.0014 7.53311 12.0697 7.43365 12.0697 7.32273V6.50607C12.0697 6.48443 12.0664 6.46345 12.0614 6.44301H14.1731V7.44649C14.1731 7.55522 14.2388 7.65317 14.3394 7.69446C14.3723 7.70799 14.4069 7.71456 14.4411 7.71456C14.5114 7.71456 14.5805 7.68688 14.6319 7.63484L15.8089 6.44301H16.1759C16.7107 6.44301 17.1457 6.00799 17.1457 5.47325V2.04914C17.1457 1.5144 16.7107 1.07935 16.1759 1.07935ZM3.29019 6.13459C3.14214 6.13459 3.02211 6.25462 3.02211 6.40266V7.02597L2.2206 6.21431C2.17023 6.16331 2.10154 6.13459 2.02986 6.13459H1.549C1.30847 6.13459 1.11277 5.93889 1.11277 5.69833V2.26143C1.11277 2.0209 1.30847 1.82517 1.549 1.82517H6.38844C6.62901 1.82517 6.8247 2.02086 6.8247 2.26143V4.25065C6.79759 4.26355 6.77219 4.28061 6.75014 4.30266L6.17271 4.88013C6.0943 4.95854 6.07225 5.07713 6.11725 5.1785L6.27927 5.54331C6.18001 5.72427 6.101 5.91483 6.04323 6.11264L5.98623 6.13459H3.29019ZM11.5336 7.1387L11.2054 7.26503C11.1229 7.29676 11.0613 7.36713 11.0409 7.45315C10.9841 7.69181 10.8898 7.9191 10.7608 8.12867C10.7145 8.20397 10.7082 8.29722 10.7441 8.37802L10.887 8.69977L10.5698 9.01694L10.2482 8.87412C10.1674 8.83817 10.0741 8.84447 9.99882 8.89088C9.78935 9.01992 9.56199 9.11415 9.32314 9.17098C9.23715 9.19146 9.16675 9.25298 9.13501 9.33548L9.00872 9.66357H8.56019L8.43386 9.33538C8.40213 9.25288 8.33176 9.19136 8.24574 9.17088C8.00705 9.11409 7.77979 9.01986 7.57022 8.89084C7.49499 8.8445 7.40167 8.83823 7.32088 8.87409L6.99912 9.01701L6.68195 8.69984L6.82477 8.37825C6.86066 8.29743 6.85439 8.20413 6.80801 8.12884C6.67897 7.91937 6.58474 7.69201 6.52791 7.45315C6.50743 7.36717 6.44591 7.29676 6.36341 7.26503L6.03532 7.13873V6.69018L6.36348 6.56385C6.44598 6.53211 6.5075 6.46174 6.52798 6.37572C6.58477 6.137 6.67904 5.90971 6.80805 5.70017C6.85439 5.62488 6.86066 5.53159 6.8248 5.45079L6.68192 5.1291L6.99908 4.81194L7.32084 4.95485C7.40167 4.99071 7.49493 4.98448 7.57019 4.9381C7.77976 4.80905 8.00705 4.71482 8.24571 4.65803C8.33169 4.63755 8.40206 4.57603 8.43379 4.49353L8.56016 4.1653H9.00868L9.13501 4.49349C9.16675 4.57599 9.23712 4.63752 9.3231 4.65799C9.56179 4.71479 9.78909 4.80902 9.99865 4.93806C10.0739 4.98438 10.1672 4.99064 10.248 4.95482L10.5698 4.8119L10.8869 5.12907L10.7441 5.45066C10.7082 5.53145 10.7145 5.62477 10.7609 5.70004C10.8899 5.90957 10.9841 6.1369 11.041 6.37572C11.0614 6.46171 11.123 6.53211 11.2055 6.56385L11.5336 6.69014V7.1387ZM16.6095 5.47328C16.6095 5.71237 16.415 5.90689 16.1759 5.90689H15.6968C15.6252 5.90689 15.5565 5.93561 15.5061 5.98661L14.7093 6.79352V6.17497C14.7093 6.02692 14.5893 5.90689 14.4412 5.90689H11.4569C11.4098 5.78207 11.354 5.66056 11.2897 5.54318L11.4516 5.17846C11.4692 5.13889 11.4763 5.09673 11.474 5.05531H15.7416C15.8897 5.05531 16.0097 4.93528 16.0097 4.78724C16.0097 4.63919 15.8897 4.51916 15.7416 4.51916H11.0352L10.8187 4.30266C10.7403 4.22425 10.6217 4.20223 10.5203 4.2472L10.1554 4.40925C9.97453 4.31 9.78396 4.23098 9.58619 4.17324L9.51424 3.98633C9.5448 3.99843 9.57801 4.00529 9.61289 4.00529H15.7416C15.8897 4.00529 16.0097 3.88526 16.0097 3.73722C16.0097 3.58917 15.8897 3.46914 15.7416 3.46914H9.61293C9.48405 3.46914 9.37652 3.56009 9.35078 3.68129C9.30581 3.64838 9.25099 3.62915 9.19275 3.62915H8.74503V2.04914C8.74503 1.81005 8.93955 1.61553 9.17864 1.61553H16.1759C16.415 1.61553 16.6095 1.81005 16.6095 2.04914V5.47328ZM16.0098 2.6872C16.0098 2.83524 15.8897 2.95527 15.7417 2.95527H9.61293C9.46488 2.95527 9.34485 2.83524 9.34485 2.6872C9.34485 2.53915 9.46488 2.41912 9.61293 2.41912H15.7416C15.8897 2.41912 16.0098 2.53912 16.0098 2.6872ZM5.09216 3.30716C5.09216 3.68484 4.83531 3.91629 4.62896 4.10227C4.43048 4.28114 4.30827 4.4 4.29758 4.58166C4.28921 4.72411 4.17108 4.83402 4.03021 4.83402C4.02492 4.83402 4.01959 4.83388 4.01423 4.83355C3.86642 4.82487 3.75366 4.698 3.76234 4.55019C3.78646 4.1397 4.05457 3.8981 4.27 3.70398C4.4473 3.5442 4.55597 3.43955 4.55597 3.30716C4.55597 2.98329 4.29249 2.71984 3.96865 2.71984C3.64482 2.71984 3.38133 2.98329 3.38133 3.30716C3.38133 3.4552 3.2613 3.57523 3.11326 3.57523C2.96521 3.57523 2.84518 3.4552 2.84518 3.30716C2.84518 2.68767 3.34916 2.18368 3.96865 2.18368C4.58814 2.18368 5.09216 2.6877 5.09216 3.30716ZM4.29799 5.231C4.29799 5.37905 4.17795 5.49908 4.02991 5.49908C3.88186 5.49908 3.76183 5.37905 3.76183 5.231C3.76183 5.08296 3.88186 4.96293 4.02991 4.96293C4.17795 4.96293 4.29799 5.08293 4.29799 5.231ZM8.78444 5.23409C7.8579 5.23409 7.10407 5.98788 7.10407 6.91442C7.10407 7.84096 7.85787 8.59479 8.78444 8.59479C9.71101 8.59479 10.4648 7.84099 10.4648 6.91442C10.4648 5.98788 9.71098 5.23409 8.78444 5.23409ZM8.78444 8.0586C8.15352 8.0586 7.64022 7.54534 7.64022 6.91439C7.64022 6.28347 8.15349 5.77021 8.78444 5.77021C9.41539 5.77021 9.92865 6.28347 9.92865 6.91439C9.92862 7.54534 9.41535 8.0586 8.78444 8.0586Z" fill="white"/>
</g>
<defs>
<clipPath id="clip0_1_1037">
<rect width="17.1569" height="17.1569" fill="white" transform="translate(0.290833 0.159912)"/>
</clipPath>
</defs>
</svg>
