<svg width="20" height="19" viewBox="0 0 20 19" fill="none" xmlns="http://www.w3.org/2000/svg">
<path d="M9.86949 6.09189C9.47361 6.09189 9.08661 5.9745 8.75745 5.75456C8.42828 5.53461 8.17172 5.222 8.02023 4.85625C7.86873 4.4905 7.82909 4.08804 7.90632 3.69976C7.98355 3.31148 8.17419 2.95482 8.45413 2.67489C8.73406 2.39496 9.09072 2.20432 9.47899 2.12708C9.86727 2.04985 10.2697 2.08949 10.6355 2.24099C11.0012 2.39249 11.3138 2.64904 11.5338 2.97821C11.7537 3.30738 11.8711 3.69437 11.8711 4.09026C11.8705 4.62094 11.6594 5.12971 11.2842 5.50496C10.9089 5.88021 10.4002 6.09129 9.86949 6.09189ZM9.86949 2.66052C9.58672 2.66052 9.31029 2.74437 9.07517 2.90147C8.84005 3.05858 8.6568 3.28187 8.54859 3.54312C8.44037 3.80437 8.41206 4.09184 8.46723 4.36919C8.52239 4.64653 8.65856 4.90128 8.85852 5.10124C9.05847 5.30119 9.31322 5.43736 9.59057 5.49252C9.86791 5.54769 10.1554 5.51938 10.4166 5.41116C10.6779 5.30295 10.9012 5.1197 11.0583 4.88458C11.2154 4.64946 11.2992 4.37303 11.2992 4.09026C11.2988 3.71121 11.148 3.34781 10.88 3.07978C10.6119 2.81175 10.2485 2.66097 9.86949 2.66052Z" fill="white"/>
<path d="M12.1582 9.23704H11.5863V7.80731C11.5867 7.73225 11.6166 7.66036 11.6695 7.60714L15.4884 3.76315C15.5531 3.69801 15.5894 3.60991 15.5894 3.51809C15.5894 3.42627 15.5531 3.33817 15.4884 3.27303C15.4275 3.21232 15.3461 3.17667 15.2602 3.17312C15.1743 3.16957 15.0902 3.19839 15.0246 3.25387L13.067 4.91723C12.1745 5.67538 11.0416 6.09162 9.87064 6.09162C8.69964 6.09162 7.56676 5.67538 6.67431 4.91723L4.71672 3.25387C4.64869 3.19557 4.56064 3.16605 4.47122 3.17158C4.3818 3.17711 4.29805 3.21724 4.23772 3.28348C4.1774 3.34972 4.14525 3.43685 4.14808 3.52639C4.15092 3.61594 4.18852 3.70086 4.25291 3.76315L8.07174 7.60714C8.12467 7.66036 8.15456 7.73225 8.15495 7.80731V9.23704H7.58306V7.9254L3.84744 4.16662C3.68011 3.99945 3.58387 3.77409 3.57882 3.53762C3.57378 3.30115 3.66032 3.07189 3.82037 2.89774C3.98041 2.72359 4.20157 2.61804 4.43762 2.60314C4.67368 2.58824 4.90635 2.66516 5.08702 2.8178L7.04462 4.48145C7.83367 5.15175 8.8353 5.51977 9.87064 5.51977C10.906 5.51977 11.9076 5.15175 12.6967 4.48145L14.6543 2.8178C14.8349 2.66516 15.0676 2.58824 15.3037 2.60314C15.5397 2.61804 15.7609 2.72359 15.9209 2.89774C16.081 3.07189 16.1675 3.30115 16.1625 3.53762C16.1574 3.77409 16.0612 3.99945 15.8938 4.16662L12.1582 7.9254V9.23704Z" fill="white"/>
<path d="M9.86948 16.9579C7.531 16.9579 6.87475 16.3694 6.80784 16.3022C6.75421 16.2486 6.72408 16.1758 6.72406 16.1V14.9562C6.72467 14.4255 6.93575 13.9168 7.31099 13.5415C7.68624 13.1663 8.19501 12.9552 8.72569 12.9546H11.0133C11.544 12.9552 12.0527 13.1663 12.428 13.5415C12.8032 13.9168 13.0143 14.4255 13.0149 14.9562V16.1C13.0149 16.1758 12.9848 16.2486 12.9311 16.3022C12.8642 16.3694 12.208 16.9579 9.86948 16.9579ZM7.29596 15.9528C7.51814 16.0803 8.22185 16.386 9.86948 16.386C11.5097 16.386 12.2143 16.0829 12.443 15.9513V14.9562C12.4426 14.5772 12.2918 14.2138 12.0238 13.9457C11.7557 13.6777 11.3923 13.5269 11.0133 13.5265H8.72569C8.34664 13.5269 7.98325 13.6777 7.71522 13.9457C7.44719 14.2138 7.29641 14.5772 7.29596 14.9562V15.9528Z" fill="white"/>
<path d="M9.86949 13.5265C9.47361 13.5265 9.08661 13.4091 8.75745 13.1891C8.42828 12.9692 8.17172 12.6566 8.02023 12.2908C7.86873 11.9251 7.82909 11.5226 7.90632 11.1343C7.98355 10.7461 8.17419 10.3894 8.45413 10.1095C8.73406 9.82953 9.09072 9.63889 9.47899 9.56165C9.86727 9.48442 10.2697 9.52406 10.6355 9.67556C11.0012 9.82706 11.3138 10.0836 11.5338 10.4128C11.7537 10.7419 11.8711 11.1289 11.8711 11.5248C11.8705 12.0555 11.6594 12.5643 11.2842 12.9395C10.9089 13.3148 10.4002 13.5259 9.86949 13.5265ZM9.86949 10.0951C9.58672 10.0951 9.31029 10.1789 9.07517 10.336C8.84005 10.4931 8.6568 10.7164 8.54859 10.9777C8.44037 11.2389 8.41206 11.5264 8.46723 11.8038C8.52239 12.0811 8.65856 12.3359 8.85852 12.5358C9.05847 12.7358 9.31322 12.8719 9.59057 12.9271C9.86791 12.9823 10.1554 12.9539 10.4166 12.8457C10.6779 12.7375 10.9012 12.5543 11.0583 12.3191C11.2154 12.084 11.2992 11.8076 11.2992 11.5248C11.2988 11.1458 11.148 10.7824 10.88 10.5144C10.6119 10.2463 10.2485 10.0955 9.86949 10.0951Z" fill="white"/>
<path d="M15.3039 16.0999C14.7108 16.1068 14.1184 16.0583 13.5344 15.955L13.6419 15.3934C14.1905 15.4896 14.7469 15.5347 15.3039 15.5281C16.944 15.5281 17.6486 15.2249 17.8774 15.0934V14.0983C17.8769 13.7193 17.7261 13.3559 17.4581 13.0878C17.1901 12.8198 16.8267 12.669 16.4476 12.6686H14.1601C13.9241 12.6684 13.6917 12.7267 13.4838 12.8383C13.2759 12.9499 13.0988 13.1112 12.9685 13.308L12.4921 12.9914C12.6746 12.7161 12.9224 12.4902 13.2135 12.3341C13.5045 12.1779 13.8298 12.0964 14.1601 12.0967H16.4476C16.9783 12.0973 17.4871 12.3084 17.8623 12.6836C18.2376 13.0589 18.4487 13.5676 18.4493 14.0983V15.2421C18.4493 15.3179 18.4191 15.3907 18.3655 15.4443C18.2986 15.5115 17.6423 16.0999 15.3039 16.0999Z" fill="white"/>
<path d="M15.3025 12.6686C14.9066 12.6686 14.5196 12.5512 14.1904 12.3312C13.8613 12.1113 13.6047 11.7987 13.4532 11.4329C13.3017 11.0672 13.2621 10.6647 13.3393 10.2764C13.4165 9.88814 13.6072 9.53148 13.8871 9.25155C14.167 8.97162 14.5237 8.78098 14.912 8.70374C15.3003 8.62651 15.7027 8.66615 16.0685 8.81765C16.4342 8.96915 16.7468 9.2257 16.9668 9.55487C17.1867 9.88404 17.3041 10.271 17.3041 10.6669C17.3035 11.1976 17.0924 11.7064 16.7172 12.0816C16.3419 12.4569 15.8332 12.6679 15.3025 12.6686ZM15.3025 9.23718C15.0197 9.23718 14.7433 9.32103 14.5082 9.47813C14.273 9.63524 14.0898 9.85853 13.9816 10.1198C13.8734 10.381 13.845 10.6685 13.9002 10.9458C13.9554 11.2232 14.0915 11.4779 14.2915 11.6779C14.4915 11.8778 14.7462 12.014 15.0235 12.0692C15.3009 12.1244 15.5884 12.096 15.8496 11.9878C16.1109 11.8796 16.3342 11.6964 16.4913 11.4612C16.6484 11.2261 16.7322 10.9497 16.7322 10.6669C16.7318 10.2879 16.581 9.92447 16.313 9.65644C16.0449 9.38841 15.6815 9.23763 15.3025 9.23718Z" fill="white"/>
<path d="M4.43644 16.0999C2.09796 16.0999 1.44171 15.5115 1.3748 15.4443C1.32117 15.3907 1.29103 15.3179 1.29102 15.2421V14.0983C1.29162 13.5676 1.5027 13.0589 1.87795 12.6836C2.2532 12.3084 2.76197 12.0973 3.29265 12.0967H5.58023C5.91053 12.0964 6.23577 12.1779 6.52684 12.3341C6.81791 12.4902 7.06574 12.7161 7.24816 12.9914L6.77177 13.308C6.64145 13.1112 6.46441 12.9499 6.25648 12.8383C6.04855 12.7267 5.81621 12.6684 5.58023 12.6686H3.29265C2.9136 12.669 2.5502 12.8198 2.28217 13.0878C2.01414 13.3559 1.86337 13.7193 1.86291 14.0983V15.0948C2.08509 15.2224 2.78881 15.5281 4.43644 15.5281C4.99339 15.5347 5.54976 15.4896 6.09837 15.3934L6.20588 15.955C5.62187 16.0583 5.02948 16.1068 4.43644 16.0999Z" fill="white"/>
<path d="M4.43645 12.6686C4.04056 12.6686 3.65357 12.5512 3.3244 12.3312C2.99523 12.1113 2.73868 11.7987 2.58718 11.4329C2.43568 11.0672 2.39604 10.6647 2.47328 10.2764C2.55051 9.88814 2.74115 9.53148 3.02108 9.25155C3.30101 8.97162 3.65767 8.78098 4.04595 8.70374C4.43423 8.62651 4.83669 8.66615 5.20244 8.81765C5.56819 8.96915 5.88081 9.2257 6.10075 9.55487C6.32069 9.88404 6.43808 10.271 6.43808 10.6669C6.43748 11.1976 6.2264 11.7064 5.85115 12.0816C5.4759 12.4569 4.96713 12.6679 4.43645 12.6686ZM4.43645 9.23718C4.15367 9.23718 3.87725 9.32103 3.64213 9.47813C3.40701 9.63524 3.22376 9.85853 3.11554 10.1198C3.00733 10.381 2.97902 10.6685 3.03418 10.9458C3.08935 11.2232 3.22552 11.4779 3.42547 11.6779C3.62542 11.8778 3.88018 12.014 4.15752 12.0692C4.43486 12.1244 4.72234 12.096 4.98359 11.9878C5.24484 11.8796 5.46813 11.6964 5.62523 11.4612C5.78234 11.2261 5.86619 10.9497 5.86619 10.6669C5.86573 10.2879 5.71496 9.92447 5.44693 9.65644C5.1789 9.38841 4.8155 9.23763 4.43645 9.23718Z" fill="white"/>
</svg>
