<svg width="22" height="22" viewBox="0 0 22 22" fill="none" xmlns="http://www.w3.org/2000/svg">
<path d="M9.73886 2.68101C9.64476 2.58691 9.64476 2.43411 9.73886 2.34002L10.6995 1.37937C10.7445 1.33393 10.8061 1.30859 10.87 1.30859C10.9339 1.30859 10.9955 1.33393 11.0405 1.37937L12.0012 2.34002C12.0952 2.43411 12.0952 2.58691 12.0012 2.68101C11.9541 2.72806 11.8922 2.75178 11.8307 2.75178C11.7687 2.75178 11.7072 2.72806 11.6602 2.68101L11.1113 2.13253V4.89384C11.1113 5.02694 11.0031 5.13511 10.87 5.13511C10.7369 5.13511 10.6287 5.02694 10.6287 4.89384V2.13253L10.0799 2.68141C9.98576 2.77551 9.83295 2.77551 9.73886 2.68101ZM15.1875 6.92331C15.2494 6.92331 15.311 6.89959 15.358 6.85254L17.3107 4.89987V5.67595C17.3107 5.80905 17.4188 5.91722 17.5519 5.91722C17.685 5.91722 17.7932 5.80905 17.7932 5.67595V4.31761C17.7932 4.18451 17.685 4.07634 17.5519 4.07634H16.1932C16.0601 4.07634 15.9519 4.18451 15.9519 4.31761C15.9519 4.45071 16.0601 4.55888 16.1932 4.55888H16.9693L15.0166 6.51155C14.9225 6.60564 14.9225 6.75844 15.0166 6.85254C15.0641 6.89999 15.1256 6.92331 15.1875 6.92331ZM20.4902 10.829L19.5295 9.86839C19.4354 9.7743 19.2826 9.7743 19.1881 9.86839C19.094 9.96249 19.094 10.1153 19.1881 10.2094L19.737 10.7583H16.9757C16.8426 10.7583 16.7344 10.8664 16.7344 10.9995C16.7344 11.1326 16.8426 11.2408 16.9757 11.2408H19.737L19.1881 11.7897C19.094 11.8838 19.094 12.0366 19.1881 12.1307C19.2352 12.1777 19.2971 12.2015 19.3586 12.2015C19.4202 12.2015 19.4821 12.1777 19.5291 12.1307L20.4898 11.17C20.5847 11.0759 20.5847 10.9231 20.4902 10.829ZM17.5519 16.0815C17.4188 16.0815 17.3107 16.1896 17.3107 16.3227V17.0988L15.358 15.1461C15.2639 15.052 15.1111 15.052 15.0166 15.1461C14.9225 15.2402 14.9225 15.393 15.0166 15.4871L16.9693 17.4398H16.1932C16.0601 17.4398 15.9519 17.548 15.9519 17.6811C15.9519 17.8142 16.0601 17.9223 16.1932 17.9223H17.5519C17.685 17.9223 17.7932 17.8142 17.7932 17.6811V16.3223C17.7932 16.1896 17.685 16.0815 17.5519 16.0815ZM11.6602 19.3181L11.1113 19.8666V17.1052C11.1113 16.9721 11.0031 16.864 10.87 16.864C10.7369 16.864 10.6287 16.9721 10.6287 17.1052V19.8666L10.0799 19.3177C9.98576 19.2236 9.83295 19.2236 9.73846 19.3177C9.64436 19.4118 9.64436 19.5646 9.73846 19.6587L10.6991 20.6193C10.7441 20.6648 10.8057 20.6901 10.8696 20.6901C10.9335 20.6901 10.9951 20.6648 11.0401 20.6193L12.0008 19.6587C12.0948 19.5646 12.0948 19.4118 12.0008 19.3177C11.9071 19.2236 11.7543 19.2236 11.6602 19.3181ZM6.38201 15.1465L4.42935 17.0992V16.3231C4.42935 16.19 4.32118 16.0819 4.18808 16.0819C4.05498 16.0819 3.94681 16.19 3.94681 16.3231V17.6819C3.94681 17.815 4.05498 17.9231 4.18808 17.9231H5.54682C5.67992 17.9231 5.78809 17.815 5.78809 17.6819C5.78809 17.5488 5.67992 17.4406 5.54682 17.4406H4.77074L6.72341 15.4879C6.8175 15.3938 6.8175 15.241 6.72341 15.1469C6.62891 15.052 6.47611 15.052 6.38201 15.1465ZM2.00299 11.2408H4.76431C4.89741 11.2408 5.00558 11.1326 5.00558 10.9995C5.00558 10.8664 4.89741 10.7583 4.76431 10.7583H2.00299L2.55188 10.2094C2.64597 10.1153 2.64597 9.96249 2.55188 9.86839C2.45778 9.7743 2.30498 9.7743 2.21048 9.86839L1.24983 10.829C1.15574 10.9231 1.15574 11.0759 1.24983 11.17L2.21048 12.1307C2.25753 12.1777 2.31945 12.2015 2.38098 12.2015C2.4425 12.2015 2.50443 12.1777 2.55147 12.1307C2.64557 12.0366 2.64557 11.8838 2.55147 11.7897L2.00299 11.2408ZM4.18808 5.91762C4.32118 5.91762 4.42935 5.80946 4.42935 5.67636V4.90028L6.38201 6.85294C6.42906 6.89999 6.49098 6.92371 6.55251 6.92371C6.61403 6.92371 6.67596 6.89999 6.723 6.85294C6.8171 6.75885 6.8171 6.60604 6.723 6.51195L4.77034 4.55928H5.54642C5.67952 4.55928 5.78769 4.45111 5.78769 4.31801C5.78769 4.18492 5.67952 4.07675 5.54642 4.07675H4.18808C4.05498 4.07675 3.94681 4.18492 3.94681 4.31801V5.67676C3.94681 5.80946 4.05498 5.91762 4.18808 5.91762ZM15.7267 10.9995C15.7267 13.6776 13.5481 15.8563 10.87 15.8563C8.19193 15.8563 6.01327 13.6776 6.01327 10.9995C6.01327 8.32146 8.19193 6.14281 10.87 6.14281C13.5481 6.14281 15.7267 8.32146 15.7267 10.9995ZM10.6287 6.6543C10.0404 6.79464 9.51609 7.43922 9.16544 8.36248C9.62667 8.461 10.1205 8.52011 10.6287 8.53418V6.6543ZM9.01224 8.8233C8.84416 9.40234 8.73961 10.0614 8.7199 10.7583H10.6287V9.01712C10.0686 9.00224 9.52172 8.93549 9.01224 8.8233ZM8.7199 11.2408C8.73961 11.9377 8.84416 12.5971 9.01224 13.1758C9.52172 13.0632 10.0686 12.9968 10.6287 12.982V11.2408H8.7199ZM9.16544 13.6362C9.51569 14.5595 10.0404 15.204 10.6287 15.3444V13.4645C10.1205 13.479 9.62667 13.5381 9.16544 13.6362ZM11.1113 15.3448C11.6996 15.2044 12.2239 14.5599 12.5746 13.6366C12.1133 13.5381 11.6195 13.479 11.1113 13.4649V15.3448ZM12.7278 13.1758C12.8959 12.5967 13.0004 11.9377 13.0201 11.2408H11.1113V12.982C11.6714 12.9968 12.2183 13.0636 12.7278 13.1758ZM13.0201 10.7583C13.0004 10.0614 12.8959 9.40194 12.7278 8.8233C12.2183 8.93589 11.6714 9.00224 11.1113 9.01712V10.7583H13.0201ZM12.5746 8.36288C12.2243 7.43922 11.6996 6.79504 11.1113 6.6547V8.53458C11.6195 8.52011 12.1133 8.461 12.5746 8.36288ZM13.0466 8.24466C13.374 8.15016 13.678 8.03395 13.9514 7.89844C13.4785 7.42837 12.8991 7.06566 12.2529 6.84973C12.4427 7.06365 12.6184 7.32382 12.776 7.62741C12.8762 7.82043 12.9662 8.02752 13.0466 8.24466ZM9.48673 6.84973C8.84054 7.06566 8.26109 7.42837 7.7882 7.89844C8.06164 8.03435 8.36564 8.15016 8.69296 8.24466C8.77338 8.02752 8.86346 7.82043 8.96358 7.62741C9.12121 7.32382 9.29694 7.06365 9.48673 6.84973ZM7.45445 8.26999C6.90195 8.96002 6.55371 9.82014 6.50265 10.7583H8.23696C8.25586 10.0308 8.36122 9.33197 8.54217 8.70307C8.14568 8.58766 7.77896 8.4421 7.45445 8.26999ZM6.50265 11.2408C6.55371 12.1789 6.90195 13.0391 7.45445 13.7291C7.77855 13.557 8.14568 13.4118 8.54257 13.296C8.36122 12.6675 8.25627 11.9682 8.23737 11.2408H6.50265ZM7.78861 14.1006C8.26149 14.5707 8.84094 14.9334 9.48714 15.1494C9.29734 14.9354 9.12161 14.6753 8.96399 14.3717C8.86386 14.1787 8.77379 13.972 8.69336 13.7544C8.36604 13.8489 8.06164 13.9651 7.78861 14.1006ZM12.2533 15.1494C12.8995 14.9334 13.4789 14.5707 13.9518 14.1006C13.6784 13.9647 13.3744 13.8489 13.0471 13.7544C12.9666 13.9716 12.8766 14.1787 12.7764 14.3717C12.6188 14.6753 12.4431 14.9354 12.2533 15.1494ZM14.2856 13.7291C14.8381 13.0391 15.1863 12.1789 15.2374 11.2408H13.503C13.4841 11.9682 13.3788 12.6671 13.1978 13.296C13.5943 13.4114 13.9611 13.5566 14.2856 13.7291ZM15.2374 10.7583C15.1863 9.82014 14.8381 8.96002 14.2856 8.26999C13.9615 8.4421 13.5943 8.58726 13.1974 8.70307C13.3788 9.33157 13.4837 10.0308 13.5026 10.7583H15.2374Z" fill="white"/>
</svg>
