<svg width="20" height="19" viewBox="0 0 20 19" fill="none" xmlns="http://www.w3.org/2000/svg">
<g clip-path="url(#clip0_1_1027)">
<path d="M18.4543 6.91997C16.9159 6.60911 15.3573 6.7835 13.8221 7.43857C13.6926 7.49383 13.6279 7.63984 13.674 7.77288L13.8422 8.2586C13.1512 8.25881 12.5773 8.07784 11.975 7.88719C11.7918 7.82917 11.6024 7.76923 11.4077 7.71376C10.5019 7.45591 9.58901 7.67802 8.90295 8.32311L8.81842 8.40257C7.64664 8.667 6.83766 8.65017 5.87044 8.32887L6.06299 7.77288C6.10906 7.63984 6.04437 7.49383 5.91487 7.43857C4.37965 6.78354 2.82109 6.60904 1.28262 6.91997C1.15756 6.94524 1.06763 7.05515 1.06763 7.18275V13.8338C1.06763 13.9819 1.18762 14.1019 1.3357 14.1019H3.68033C3.79457 14.1019 3.89626 14.0295 3.93365 13.9215L4.03905 13.6171C4.93328 13.9535 5.62267 14.6708 6.0073 15.0713C6.04594 15.1115 6.08176 15.1488 6.11468 15.1825L8.87607 18.0121C9.04732 18.1875 9.27822 18.285 9.52621 18.2865C9.52821 18.2865 9.53014 18.2865 9.53211 18.2865C9.78153 18.2865 10.0153 18.19 10.1909 18.0144C10.3013 17.904 10.3779 17.7726 10.421 17.6329C10.8312 17.8622 11.3604 17.8027 11.7087 17.4545C11.8897 17.2734 11.9928 17.0434 12.0177 16.8066C12.1128 16.8335 12.2122 16.8473 12.3138 16.8473C12.6022 16.8473 12.8727 16.7356 13.0755 16.5328C13.2701 16.3383 13.3745 16.0872 13.3888 15.832C13.7325 15.9032 14.1046 15.8058 14.3708 15.5396C14.7638 15.1466 14.7885 14.5326 14.444 14.0997C14.5368 14.0814 14.6292 14.0539 14.7202 14.0168C14.9957 13.9043 15.2501 13.7765 15.496 13.6529C15.5581 13.6218 15.6186 13.5915 15.6787 13.5616L15.8033 13.9215C15.8407 14.0295 15.9424 14.1019 16.0566 14.1019H18.4013C18.5494 14.1019 18.6694 13.9819 18.6694 13.8338V7.18275C18.6693 7.05515 18.5794 6.94524 18.4543 6.91997ZM3.4895 13.5658H1.60381V7.40551C2.8874 7.18704 4.18696 7.33202 5.47337 7.83704L3.4895 13.5658ZM13.9917 15.1604C13.7807 15.3714 13.4374 15.3714 13.2266 15.1604L11.5397 13.4356C11.4363 13.3297 11.2666 13.3276 11.1606 13.431C11.0546 13.5344 11.0526 13.7041 11.156 13.8101L12.6942 15.3862C12.6945 15.3866 12.6948 15.3868 12.6951 15.3871C12.6956 15.3876 12.696 15.3881 12.6964 15.3886C12.9074 15.5995 12.9074 15.9427 12.6964 16.1536C12.4855 16.3646 12.1422 16.3646 11.9314 16.1538L10.1728 14.3573C10.0694 14.2513 9.89966 14.2492 9.79379 14.3527C9.68781 14.4561 9.68577 14.6258 9.78918 14.7317L11.3274 16.3079C11.3277 16.3082 11.3281 16.3086 11.3285 16.3089C11.3289 16.3093 11.3293 16.3098 11.3296 16.3102V16.3102C11.4312 16.4118 11.4871 16.5476 11.4871 16.6928C11.4871 16.8379 11.4312 16.9737 11.3297 17.0753C11.1187 17.2862 10.7754 17.2861 10.5646 17.0753L8.65518 15.128C8.55174 15.022 8.38199 15.02 8.27612 15.1234C8.17014 15.2268 8.1681 15.3965 8.27151 15.5025L9.80966 17.0786C9.81001 17.0789 9.81041 17.0793 9.8108 17.0797C9.81119 17.08 9.81155 17.0805 9.81194 17.0809C9.96471 17.2337 9.96475 17.4824 9.81198 17.6353C9.7371 17.7101 9.6373 17.7505 9.52968 17.7503C9.42609 17.7497 9.33026 17.7096 9.25992 17.6376L6.49853 14.8081C6.46653 14.7753 6.43172 14.739 6.39415 14.6999C5.97678 14.2653 5.22827 13.4866 4.21473 13.1103L5.69508 8.8356C6.27281 9.02787 6.80642 9.12216 7.37688 9.12216C7.61111 9.12216 7.85202 9.10565 8.10426 9.07412L7.4839 9.65742C7.18716 9.93647 7.03032 10.2993 7.03032 10.7066V13.4003C7.03032 13.5483 7.15031 13.6683 7.29839 13.6683C8.45373 13.6683 9.64877 12.9376 9.64877 11.7147C9.64877 11.2925 9.98151 10.9908 10.2366 10.7823L13.158 13.7019C13.2989 13.8428 13.4606 13.9497 13.6338 14.0211L13.9876 14.391C14.1996 14.6127 14.2015 14.9507 13.9917 15.1604ZM15.2553 13.1738C15.0186 13.2927 14.7737 13.4158 14.5175 13.5203C14.1694 13.6624 13.8028 13.5885 13.5368 13.3227L10.4434 10.2312C10.3428 10.1307 10.1815 10.1262 10.0755 10.2207C10.047 10.246 10.0081 10.2775 9.96296 10.3138C9.66575 10.5538 9.11248 11.0004 9.11248 11.7147C9.11248 12.2188 8.81617 12.5457 8.56761 12.7312C8.29202 12.9369 7.93749 13.0718 7.56632 13.1162V10.7067C7.56632 10.4436 7.65944 10.2282 7.85106 10.048L9.27022 8.71368C9.81545 8.20098 10.541 8.02444 11.2609 8.22939C11.4481 8.28265 11.6337 8.34145 11.8132 8.39828C12.4795 8.60917 13.1671 8.82627 14.0265 8.79089L15.5018 13.051C15.4186 13.0918 15.3362 13.1332 15.2553 13.1738ZM18.1332 13.5658H16.2475L14.2636 7.83707C15.55 7.33202 16.8495 7.18708 18.1332 7.40554V13.5658ZM3.63222 6.45884H7.2614V7.2175C7.2614 7.36558 7.38139 7.48557 7.52947 7.48557H12.2075C12.3556 7.48557 12.4755 7.36558 12.4755 7.2175V6.45884H16.1047C16.2528 6.45884 16.3728 6.33885 16.3728 6.19077V5.06989C16.3728 4.153 15.8259 3.35088 15.016 2.99952C15.2809 2.70596 15.4424 2.31911 15.4424 1.89547C15.4424 0.980477 14.6902 0.236084 13.7657 0.236084C12.8412 0.236084 12.0891 0.980477 12.0891 1.89547C12.0891 2.31946 12.2508 2.70664 12.5161 3.0003C12.0038 3.22431 11.5884 3.63321 11.3572 4.14653C11.2807 4.10188 11.201 4.06192 11.1188 4.02625C11.3837 3.73269 11.5451 3.34584 11.5451 2.92224C11.5451 2.00721 10.793 1.26282 9.86849 1.26282C8.94395 1.26282 8.1918 2.00721 8.1918 2.92224C8.1918 3.34587 8.35325 3.73272 8.61815 4.02629C8.53594 4.06196 8.45623 4.10192 8.37974 4.14656C8.14859 3.63321 7.73321 3.22434 7.22094 3.00034C7.48626 2.70671 7.64796 2.31953 7.64796 1.89555C7.64796 0.980549 6.89581 0.236155 5.97131 0.236155C5.04677 0.236155 4.29462 0.980549 4.29462 1.89555C4.29462 2.31918 4.45607 2.70606 4.72097 2.99959C3.91109 3.35095 3.36422 4.15307 3.36422 5.06996V6.19084C3.36414 6.33882 3.48417 6.45884 3.63222 6.45884ZM11.9394 6.94939H7.79759V6.09662C7.79759 5.28639 8.35751 4.59332 9.14086 4.417C9.36108 4.5224 9.60792 4.58156 9.86853 4.58156C10.1291 4.58156 10.376 4.5224 10.5962 4.417C11.3795 4.59332 11.9394 5.28639 11.9394 6.09662V6.94939H11.9394ZM13.7657 0.7722C14.3946 0.7722 14.9062 1.27608 14.9062 1.89544C14.9062 2.5148 14.3946 3.01871 13.7657 3.01871C13.1368 3.01871 12.6252 2.5148 12.6252 1.89544C12.6252 1.27608 13.1368 0.7722 13.7657 0.7722ZM13.0383 3.39037C13.2584 3.49574 13.5052 3.55486 13.7657 3.55486C14.0263 3.55486 14.2732 3.49567 14.4934 3.39027C15.2768 3.56666 15.8367 4.25969 15.8367 5.06989V5.92269H12.4685C12.4259 5.36384 12.1802 4.85739 11.7985 4.48344C11.9986 3.93453 12.4664 3.5198 13.0383 3.39037ZM9.86849 1.79893C10.4974 1.79893 11.009 2.30284 11.009 2.92221C11.009 3.54157 10.4974 4.04541 9.86849 4.04541C9.23958 4.04541 8.72795 3.54153 8.72795 2.92217C8.72795 2.30281 9.23958 1.79893 9.86849 1.79893ZM5.97127 0.7722C6.60014 0.7722 7.11177 1.27608 7.11177 1.89544C7.11177 2.5148 6.60014 3.01871 5.97127 3.01871C5.34237 3.01871 4.83073 2.5148 4.83073 1.89544C4.83073 1.27608 5.34237 0.7722 5.97127 0.7722ZM3.9003 5.06985C3.9003 4.25965 4.46022 3.56662 5.24357 3.39023C5.46379 3.49564 5.71067 3.55483 5.97127 3.55483C6.23177 3.55483 6.47854 3.49571 6.69872 3.39034C7.27055 3.51976 7.73846 3.93446 7.93849 4.48341C7.55682 4.85732 7.31108 5.36377 7.26851 5.92265H3.9003V5.06985Z" fill="white"/>
</g>
<defs>
<clipPath id="clip0_1_1027">
<rect width="18.3007" height="18.3007" fill="white" transform="translate(0.718933 0.11084)"/>
</clipPath>
</defs>
</svg>
